<?xml version="1.0" encoding="UTF-8" standalone="no"?>
<!-- Created with Inkscape (http://www.inkscape.org/) -->
<svg
   xmlns:svg="http://www.w3.org/2000/svg"
   xmlns="http://www.w3.org/2000/svg"
   version="1.0"
   width="661.83368"
   height="773.04535"
   id="svg2">
  <defs
     id="defs5" />
  <path
     d="M 70.500049,769.00005 L 66.549911,764.95474 L 147.02263,684.47737 L 227.49533,604 L 113.74767,604 L 0,604 L 0,599 L 0,594 L 117.49594,594 L 234.99186,594 L 235.24593,474.92346 L 235.49999,355.84692 L 338.99999,296.07719 L 442.49999,236.30745 L 442.75409,118.15373 L 443.00819,-5.3290705e-15 L 448.50409,-5.3290705e-15 L 453.99999,-5.3290705e-15 L 454.04409,118.25 L 454.0882,236.5 L 556.6418,295.5 C 613.04628,327.95 659.82821,355.09642 660.60164,355.82537 C 661.79781,356.95275 661.96994,375.46002 661.75393,479.71466 L 661.49999,602.27857 L 555.99999,663.30367 C 497.97499,696.86747 449.59999,724.34878 448.49999,724.37325 C 447.39999,724.39773 400.39169,697.75805 344.03711,665.17398 L 241.57423,605.9302 L 158.01222,689.48778 L 74.450189,773.04537 L 70.500049,769.00005 z M 442.4585,585.5 L 441.75664,481.5 L 344.75886,425.5 C 291.41008,394.7 247.36291,369.34936 246.87627,369.16525 C 246.36549,368.972 246.09895,416.93459 246.24573,482.62612 L 246.49999,596.42174 L 344.49999,653.02299 L 442.49999,709.62424 L 442.83017,699.56212 C 443.01177,694.02795 442.84452,642.7 442.4585,585.5 z M 552.99999,652.57746 L 650.49999,596.22497 L 650.7541,479.28727 L 651.00822,362.34958 L 550.2541,304.19611 C 494.83934,272.2117 449.17821,245.92055 448.78491,245.77132 C 447.95722,245.45727 252.06658,358.22795 252.0266,359.04151 C 252.01196,359.33934 297.2109,385.66434 352.46868,417.54151 L 452.93737,475.5 L 452.96956,530 C 453.01205,601.93573 454.1754,709.00912 454.91401,708.96498 C 455.2363,708.94572 499.37499,683.57134 552.99999,652.57746 z M 528.99099,341.82299 C 484.17094,315.96466 447.07348,294.40207 446.55218,293.90611 C 445.27426,292.69032 449.42975,285.5 451.41031,285.5 C 452.24477,285.5 489.57057,306.65 534.35652,332.5 L 615.78552,379.5 L 613.93143,383 C 612.91169,384.925 611.7184,387.02608 611.27967,387.66907 C 610.72932,388.47566 585.21548,374.26095 528.99099,341.82299 z"
     id="path2384"
     style="fill:#000000" />
</svg>
