<?xml version="1.0" encoding="UTF-8" standalone="no"?>
<!-- Created with Inkscape (http://www.inkscape.org/) -->

<svg
   xmlns:dc="http://purl.org/dc/elements/1.1/"
   xmlns:cc="http://creativecommons.org/ns#"
   xmlns:rdf="http://www.w3.org/1999/02/22-rdf-syntax-ns#"
   xmlns:svg="http://www.w3.org/2000/svg"
   xmlns="http://www.w3.org/2000/svg"
   version="1.1"
   width="620"
   height="179.66"
   id="svg2">
  <defs
     id="defs4" />
  <metadata
     id="metadata7">
    <rdf:RDF>
      <cc:Work
         rdf:about="">
        <dc:format>image/svg+xml</dc:format>
        <dc:type
           rdf:resource="http://purl.org/dc/dcmitype/StillImage" />
        <dc:title></dc:title>
      </cc:Work>
    </rdf:RDF>
  </metadata>
  <g
     transform="translate(-384.3,-598.04)"
     id="layer1">
    <path
       d="m 424.74,767.1 c 0,-1.49 1.64,-3.52 7.08,-8.74 5.02,-4.81 5.8,-5.82 5.8,-7.46 0,-4.03 -4.96,-5.78 -7.93,-2.81 -0.79,0.79 -1.44,1.84 -1.44,2.34 0,0.59 -0.54,0.91 -1.53,0.91 -1.42,0 -1.51,-0.14 -1.16,-1.9 0.2,-1.05 1.15,-2.67 2.08,-3.61 2.3,-2.31 6.98,-2.76 9.87,-0.95 4.57,2.87 4.3,7.79 -0.68,12.34 -1.66,1.52 -4.2,3.84 -5.65,5.16 l -2.64,2.39 6.3,0 6.29,0 0,1.47 0,1.46 -8.2,0 c -5.4,0 -8.19,-0.21 -8.19,-0.63 z m 30.51,-8.99 c -8.44,-2.75 -12.53,-15.46 -8.21,-25.51 4.48,-10.41 20.34,-11.79 25.64,-2.22 1.63,2.94 1.46,3.57 -1.12,4.18 -1.24,0.29 -1.65,0 -2.63,-1.78 -2.39,-4.36 -7.23,-5.94 -12.31,-4 -4.51,1.72 -6.71,5.86 -6.71,12.61 0,6.49 1.96,10.47 6.09,12.34 5.84,2.65 12.33,0 14.08,-5.76 0.4,-1.33 1.24,-1.51 3.73,-0.82 l 1.36,0.39 -1.95,3.78 c -2.62,5.06 -5.78,7.11 -11.44,7.41 -2.42,0.13 -4.97,-0.11 -6.53,-0.62 z m -60.95,-16.72 0,-16.98 2.05,0 2.05,0 0,7.03 0,7.02 8.78,0 8.78,0 0,-7.02 0,-7.03 2.05,0 2.05,0 0,16.98 0,16.97 -2.05,0 -2.05,0 0,-7.9 0,-7.9 -8.78,0 -8.78,0 0,7.9 0,7.9 -2.05,0 -2.05,0 0,-16.97 z m 169.83,-17.34 -30.61,-17.68 -13.27,7.65 c -7.3,4.2 -18.89,10.9 -25.76,14.88 -6.88,3.97 -12.7,7.22 -12.94,7.22 -0.23,0 -0.7,-0.6 -1.03,-1.32 -0.58,-1.27 0.44,-1.93 24.2,-15.64 13.64,-7.87 24.8,-14.52 24.8,-14.76 0,-0.25 -0.77,-0.84 -1.72,-1.34 -1.41,-0.72 -1.76,-1.32 -1.9,-3.24 l -0.19,-2.35 -24.87,14.35 -24.88,14.35 -1.06,-1.28 c -1.03,-1.24 -1.02,-1.3 0.29,-2.08 0.75,-0.45 12.42,-7.2 25.94,-15 l 24.58,-14.19 0.16,-22.94 0.15,-22.95 1.75,0 1.75,0 0,26.26 0,26.27 32.34,18.66 c 17.79,10.26 32.65,18.63 33.03,18.59 0.38,-0.1 15.6,-8.69 33.81,-19.21 l 33.11,-19.14 33.12,19.14 c 18.21,10.52 33.42,19.17 33.8,19.21 0.38,0.1 15.24,-8.32 33,-18.58 l 32.37,-18.66 0,-26.27 0,-26.27 1.76,0 1.76,0 0,26.23 0,26.24 32.72,18.85 32.66,18.86 23.65,-13.66 c 20.61,-11.89 23.77,-13.54 24.35,-12.75 0.41,0.5 0.7,1.18 0.76,1.5 0,0.55 -46.77,27.88 -48.41,28.29 -0.41,0.1 -15.63,-8.4 -33.83,-18.88 -18.15,-10.49 -33.25,-19.07 -33.6,-19.07 -0.29,0 -15.51,8.63 -33.78,19.19 l -33.27,19.2 -33.24,-19.2 c -18.27,-10.56 -33.5,-19.19 -33.82,-19.19 -0.32,0 -15.55,8.63 -33.82,19.19 l -33.24,19.2 -30.62,-17.68 z m 164.75,2.39 c -0.9,-1.38 -0.87,-1.42 3.03,-3.7 2.17,-1.27 14.7,-8.51 27.83,-16.08 23.89,-13.77 23.89,-13.78 24.53,-12.35 0.35,0.78 0.53,1.53 0.41,1.67 -0.12,0.13 -8.55,5.04 -18.67,10.9 -10.13,5.87 -22.44,12.98 -27.33,15.81 l -8.89,5.15 -0.91,-1.4 z m 134.18,0 c -0.58,-1.27 -0.58,-1.64 0.12,-2.05 36.06,-21.01 41.27,-23.86 41.97,-22.94 0.41,0.53 0.76,1.23 0.76,1.57 0,0.34 -8.37,5.43 -18.61,11.31 -10.19,5.87 -19.67,11.35 -21.08,12.17 l -2.46,1.49 -0.7,-1.55 z m 114.85,-3.23 c 0,-1.5 1.64,-3.53 7.08,-8.74 5.04,-4.81 5.8,-5.82 5.8,-7.47 0,-4.03 -4.98,-5.78 -7.9,-2.81 -0.82,0.79 -1.47,1.85 -1.47,2.35 0,0.59 -0.52,0.9 -1.52,0.9 -1.46,0 -1.52,-0.14 -1.17,-1.9 0.23,-1.05 1.17,-2.67 2.11,-3.61 2.28,-2.31 6.96,-2.76 9.83,-0.94 4.57,2.86 4.33,7.79 -0.64,12.34 -1.7,1.51 -4.22,3.84 -5.68,5.15 l -2.64,2.4 6.27,0 6.32,0 0,1.46 0,1.46 -8.2,0 c -5.38,0 -8.19,-0.21 -8.19,-0.62 z m -55.55,-9 c -8.43,-2.75 -12.53,-15.46 -8.2,-25.51 4.45,-10.41 20.37,-11.78 25.64,-2.22 1.64,2.94 1.47,3.58 -1.11,4.18 -1.23,0.29 -1.64,0 -2.63,-1.78 -2.4,-4.36 -7.26,-5.94 -12.3,-4 -4.5,1.72 -6.73,5.86 -6.73,12.61 0,6.49 1.99,10.47 6.09,12.34 5.85,2.65 12.35,0 14.05,-5.76 0.41,-1.33 1.29,-1.52 3.74,-0.82 l 1.41,0.39 -1.99,3.78 c -2.63,5.06 -5.8,7.11 -11.42,7.41 -2.4,0.13 -4.97,-0.12 -6.55,-0.63 z m 25.11,-16.72 0,-16.98 2.05,0 2.05,0 0,7.02 0,7.03 8.78,0 8.78,0 0,-7.03 0,-7.02 2.05,0 2.05,0 0,16.98 0,16.97 -2.05,0 -2.05,0 0,-7.9 0,-7.9 -8.78,0 -8.78,0 0,7.9 0,7.9 -2.05,0 -2.05,0 0,-16.97 z M 583.62,651.26 c -1.85,-0.75 -4.43,-4.11 -4.23,-5.52 0.22,-1.51 2.81,-2.13 2.81,-0.66 0,0.52 0.65,1.6 1.44,2.39 2.02,2.01 4.62,1.9 6.8,-0.28 2.11,-2.11 2.17,-3.74 0.22,-5.69 -1.17,-1.17 -1.94,-1.45 -3.52,-1.26 -1.87,0.21 -2.01,0.11 -2.01,-1.41 0,-1.23 0.28,-1.64 1.14,-1.64 1.79,0 4.07,-1.24 4.44,-2.4 1.29,-4.06 -5.62,-5.53 -7.82,-1.68 -1.02,1.81 -1.62,2.06 -2.94,1.23 -0.65,-0.42 -0.64,-0.79 0.1,-2.19 1.33,-2.57 3,-3.8 5.62,-4.15 6.03,-0.82 10.68,5.08 6.93,8.78 l -1.31,1.29 1.9,1.83 c 5.61,5.38 -2,14.42 -9.56,11.36 z m 268.08,0 c -1.81,-0.75 -4.39,-4.11 -4.21,-5.52 0.23,-1.51 2.81,-2.13 2.81,-0.66 0,0.52 0.64,1.6 1.4,2.39 2.05,2.01 4.69,1.9 6.85,-0.28 2.11,-2.11 2.17,-3.74 0.18,-5.69 -1.17,-1.17 -1.93,-1.45 -3.51,-1.26 -1.88,0.21 -1.99,0.11 -1.99,-1.41 0,-1.23 0.29,-1.64 1.11,-1.64 1.81,0 4.1,-1.24 4.45,-2.4 1.29,-4.06 -5.62,-5.53 -7.79,-1.68 -1.05,1.81 -1.64,2.06 -2.92,1.23 -0.71,-0.42 -0.65,-0.79 0,-2.19 1.35,-2.57 2.99,-3.8 5.62,-4.15 6.03,-0.82 10.72,5.08 6.97,8.78 l -1.35,1.29 1.93,1.83 c 5.57,5.38 -2.04,14.42 -9.6,11.36 z M 522.57,642.2 c -8.45,-2.74 -12.53,-15.46 -8.21,-25.5 4.48,-10.41 20.34,-11.79 25.64,-2.23 1.62,2.94 1.46,3.58 -1.12,4.18 -1.25,0.3 -1.66,0 -2.63,-1.78 -2.39,-4.36 -7.23,-5.93 -12.31,-3.99 -4.51,1.72 -6.71,5.86 -6.71,12.61 0,6.49 1.96,10.47 6.08,12.35 5.85,2.64 12.33,0 14.08,-5.77 0.41,-1.33 1.25,-1.52 3.74,-0.81 l 1.36,0.38 -1.95,3.78 c -2.63,5.06 -5.78,7.11 -11.45,7.41 -2.41,0.13 -4.96,-0.12 -6.52,-0.63 z m 268.08,0 c -8.43,-2.74 -12.53,-15.46 -8.19,-25.5 4.44,-10.41 20.37,-11.79 25.64,-2.23 1.63,2.94 1.46,3.58 -1.12,4.18 -1.23,0.3 -1.64,0 -2.63,-1.78 -2.4,-4.36 -7.26,-5.93 -12.29,-3.99 -4.51,1.72 -6.74,5.86 -6.74,12.61 0,6.49 1.99,10.47 6.09,12.35 5.86,2.64 12.35,0 14.05,-5.77 0.41,-1.33 1.29,-1.52 3.75,-0.81 l 1.4,0.38 -1.99,3.78 c -2.63,5.06 -5.79,7.11 -11.41,7.41 -2.4,0.13 -4.98,-0.12 -6.56,-0.63 z m -242.98,-16.71 0,-16.98 2.04,0 2.05,0 0,7.02 0,7.03 8.78,0 8.78,0 0,-7.03 0,-7.02 2.05,0 2.05,0 0,16.98 0,16.97 -2.05,0 -2.05,0 0,-7.9 0,-7.9 -8.78,0 -8.78,0 0,7.9 0,7.9 -2.05,0 -2.04,0 0,-16.97 z m 268.68,0 0,-16.98 2.05,0 2.05,0 0,7.02 0,7.03 8.78,0 8.78,0 0,-7.03 0,-7.02 2.05,0 2.04,0 0,16.98 0,16.97 -2.04,0 -2.05,0 0,-7.9 0,-7.9 -8.78,0 -8.78,0 0,7.9 0,7.9 -2.05,0 -2.05,0 0,-16.97 z"
       id="path3033"
       style="fill:#000000" />
  </g>
</svg>
