<svg id="Layer_1" data-name="Layer 1" xmlns="http://www.w3.org/2000/svg" viewBox="0 0 800 600"><defs><style>.cls-1,.cls-2,.cls-3,.cls-4{fill:#f7941d;}.cls-1{stroke:#010101;stroke-width:0.8px;}.cls-3{isolation:isolate;font-size:55.38px;font-family:ArialMT, Arial;}.cls-4{font-size:120px;font-family:MyriadPro-Regular, Myriad Pro;}</style></defs><title>CBD</title><g id="_1" data-name="1"><path id="_2" data-name="2" class="cls-1" d="M309.92,426.51V352.57"/><path id="_3" data-name="3" class="cls-2" d="M311.56,427.85l-1.64,1-1.63-1V351.22l1.63-1,1.64,1Z"/><path id="_4" data-name="4" class="cls-1" d="M324.05,418.33V360.74"/><path id="_5" data-name="5" class="cls-2" d="M322.42,358.43v62.21h3.27V358.43Z"/><path id="_6" data-name="6" class="cls-1" d="M375.59,465.83l-63.36-34.71"/><path id="_7" data-name="7" class="cls-2" d="M377.9,466.22V470l-68-39.22v-1.93l1.64-1,66.34,38.37Z"/><path id="_8" data-name="8" class="cls-1" d="M443.66,431.12,380.2,465.83"/><path id="_9" data-name="9" class="cls-2" d="M444.33,427.85l1.64,1v1.93L377.9,470v-3.74l66.43-38.37Z"/><path id="_10" data-name="10" class="cls-1" d="M429.53,423,380.2,449.49"/><path id="_11" data-name="11" class="cls-2" d="M431.07,419.2l1.63,2.88-53.94,31.16-1.63-2.89Z"/><path id="_12" data-name="12" class="cls-1" d="M446,352.57v73.94"/><path id="_13" data-name="13" class="cls-2" d="M444.33,351.22l3.27-1.92v78.55l-1.63,1-1.64-1V351.22Z"/><path id="_14" data-name="14" class="cls-1" d="M380.2,313.25,443.66,348"/><path id="_15" data-name="15" class="cls-2" d="M377.9,312.86v-1.92l1.63-1L447.6,349.3l-3.27,1.92L377.9,312.86Z"/><path id="_16" data-name="16" class="cls-1" d="M380.2,329.59l49.33,26.54"/><path id="_17" data-name="17" class="cls-2" d="M377.13,328.73l1.63-2.89L432.7,357l-1.63,2.79-53.94-31Z"/><path id="_18" data-name="18" class="cls-1" d="M312.23,348l63.36-34.7"/><path id="_19" data-name="19" class="cls-2" d="M311.56,351.22l-1.64-1-.1-1.92L376.26,310l1.64,1v1.92Z"/><path id="_20" data-name="20" class="cls-1" d="M511.73,465.83l-63.45-34.71"/><path id="_21" data-name="21" class="cls-2" d="M514,466.22V470L446,430.74v-1.93l1.63-1L514,466.22Z"/><path id="_22" data-name="22" class="cls-1" d="M579.71,431.12l-63.36,34.71"/><path id="_23" data-name="23" class="cls-2" d="M582,426.89v3.85L514,470v-3.74l68-39.33Z"/><path id="_24" data-name="24" class="cls-1" d="M647.78,465.83l-63.46-34.71"/><path id="_25" data-name="25" class="cls-2" d="M650.09,466.22V470L582,430.74v-3.85l68.07,39.33Z"/><path id="_26" data-name="26" class="cls-1" d="M715.85,431.12l-63.46,34.71"/><path id="_27" data-name="27" class="cls-2" d="M718.16,426.89v3.85L650.09,470v-3.74l68.07-39.33Z"/><path id="_28" data-name="28" class="cls-1" d="M783.83,465.83l-63.36-34.71"/><path id="_29" data-name="29" class="cls-2" d="M787,466.7l-1.63,2.78-67.21-38.74v-3.85L787,466.7Z"/><text class="cls-3" transform="translate(181.76 488.71)">H</text><text class="cls-3" transform="translate(220.22 488.71)">O</text><path id="_32" data-name="32" class="cls-1" d="M268.19,451.89l39.42-20.77"/><path id="_33" data-name="33" class="cls-2" d="M266.75,455.64l-1.63-2.79,43.17-25,1.63,1v1.93Z"/><path id="_34" data-name="34" class="cls-1" d="M168.78,274.79,307.61,348"/><path id="_35" data-name="35" class="cls-2" d="M166.47,274.4v-1.92l1.63-1,141.72,76.82.1,1.92-1.63,1L166.47,274.4Z"/><text class="cls-3" transform="translate(357.13 253.35)">O</text><text class="cls-3" transform="translate(398.66 253.35)">H</text><path id="_38" data-name="38" class="cls-1" d="M377.9,265.08v43.55"/><path id="_39" data-name="39" class="cls-2" d="M376.26,262.77h3.27V310l-1.63,1-1.64-1Z"/><path id="_40" data-name="40" class="cls-1" d="M166.47,196.24v73.93"/><path id="_41" data-name="41" class="cls-2" d="M164.84,194.89,168.1,193v78.55l-1.63,1-1.63-1V194.89Z"/><path id="_42" data-name="42" class="cls-1" d="M100.71,156.91l63.45,34.71"/><path id="_43" data-name="43" class="cls-2" d="M98.4,156.53V154.6l1.63-1L168.1,193l-3.26,1.92Z"/><path id="_44" data-name="44" class="cls-1" d="M100.71,173.26,150,199.79"/><path id="_45" data-name="45" class="cls-2" d="M97.63,172.39l1.63-2.88,53.85,31.15-1.64,2.88Z"/><path id="_46" data-name="46" class="cls-1" d="M32.63,191.62l63.46-34.71"/><path id="_47" data-name="47" class="cls-2" d="M32,194.89,28.69,193l68.07-39.33,1.64,1v1.93Z"/><path id="_48" data-name="48" class="cls-1" d="M30.33,270.17V196.24"/><path id="_49" data-name="49" class="cls-2" d="M32,271.52l-3.27,1.92V193L32,194.89Z"/><path id="_50" data-name="50" class="cls-1" d="M96.09,309.5,32.63,274.79"/><path id="_51" data-name="51" class="cls-2" d="M98.4,309.88v1.92l-3.66-.28-66-38.08L32,271.52Z"/><path id="_52" data-name="52" class="cls-1" d="M164.16,274.79,100.71,309.5"/><path id="_53" data-name="53" class="cls-2" d="M164.84,271.52l1.63,1v1.92L100,312.77l-1.63-1v-1.92Z"/><path id="_54" data-name="54" class="cls-1" d="M98.4,388.05V314.11"/><path id="_55" data-name="55" class="cls-2" d="M100,389.39l-1.63,1-1.64-1V315.07l1.64-3.27,1.63,1v76.62Z"/><path id="_56" data-name="56" class="cls-1" d="M32.73,427.37l63.36-34.71"/><path id="_57" data-name="57" class="cls-2" d="M31.19,431l-1.63-2.79,67.2-38.85,1.64,1v1.92Z"/><path id="_58" data-name="58" class="cls-1" d="M164.16,427.37l-63.45-34.71"/><path id="_59" data-name="59" class="cls-2" d="M167.24,428.24,165.6,431,98.4,392.28v-1.92l1.63-1,67.21,38.85Z"/><path id="_60" data-name="60" class="cls-1" d="M157.05,439.58,100.71,409"/><path id="_61" data-name="61" class="cls-2" d="M160.22,440.45l-1.63,2.88-61-35.19,1.63-2.88Z"/><path id="_62" data-name="62" class="cls-1" d="M98.4,78.36V152.3"/><path id="_63" data-name="63" class="cls-2" d="M96.76,76.05H100v77.59l-1.63,1-1.64-1V76.05Z"/><text class="cls-3" transform="translate(215.6 253.35)">H</text><path id="_65" data-name="65" class="cls-1" d="M205.7,255.27l-3.18-8.94"/><path id="_66" data-name="66" class="cls-2" d="M201.47,242.87,209.64,257l-3.17,1.06-7.5-13,2.5-2.21Z"/><path id="_67" data-name="67" class="cls-1" d="M192,259.79l-.28-3.94"/><path id="_68" data-name="68" class="cls-2" d="M190.7,252.48l5.29,9-3.18,1.06-4.61-7.89Z"/><path id="_69" data-name="69" class="cls-1" d="M178.39,264.31l2.69,1.15"/><path id="_70" data-name="70" class="cls-2" d="M180,262l2.3,4-3.17,1.06-1.63-2.89L180,262Z"/><text class="cls-3" transform="translate(11 371.8)">H</text><path id="_72" data-name="72" class="cls-1" d="M58.5,333.82l37.59-19.71"/><path id="_73" data-name="73" class="cls-2" d="M60.32,343.24l-8.17-14.13,42.59-17.59,3.66.28-1.64,3.27L60.32,343.24Z"/></g><text class="cls-4" transform="translate(584.44 101)">CBD</text></svg>