<svg id="Layer_1" data-name="Layer 1" xmlns="http://www.w3.org/2000/svg" viewBox="0 0 100 100"><defs><style>.cls-1{fill:#fbb040;}.cls-2{fill:#fff;}</style></defs><title>favicon-01</title><path class="cls-1" d="M50,89.8,14.67,69.4V28.6L50,8.2,85.33,28.6V69.4ZM18.79,67,50,85,81.21,67V31L50,13,18.79,31Z"/><rect class="cls-1" x="47.94" y="65.01" width="4.13" height="21.82"/><path class="cls-1" d="M49.86,47.13a2.06,2.06,0,0,1-2.06-2.06V12.57a2.07,2.07,0,1,1,4.13,0v32.5A2.07,2.07,0,0,1,49.86,47.13Z"/><path class="cls-2" d="M49.83,47.74a2.5,2.5,0,0,1-2.5-2.5V5.84a2.5,2.5,0,0,1,5,0v39.4A2.5,2.5,0,0,1,49.83,47.74Z"/><path class="cls-1" d="M50,67.39l-20.76-12v-24L50,19.44l20.76,12v24ZM33.36,53,50,62.63,66.64,53V33.81L50,24.21l-16.64,9.6Z"/><path class="cls-2" d="M50,99.45,7.17,74.73V25.27L50,.55,92.83,25.27V74.73ZM12.17,71.84,50,93.68,87.83,71.84V28.16L50,6.32,12.17,28.16Z"/><path class="cls-2" d="M50,72.29,24.83,57.77V28.71L50,14.18,75.17,28.71V57.77ZM29.83,54.88,50,66.52,70.17,54.88V31.59L50,20,29.83,31.59Z"/><rect class="cls-2" x="47.5" y="69.41" width="5" height="26.44"/><path class="cls-2" d="M36.67,41.5a2.5,2.5,0,0,1-2.5-2.5V12.61a2.5,2.5,0,0,1,5,0V39A2.5,2.5,0,0,1,36.67,41.5Z"/><path class="cls-2" d="M63,41.5A2.5,2.5,0,0,1,60.5,39V12.61a2.5,2.5,0,0,1,5,0V39A2.5,2.5,0,0,1,63,41.5Z"/></svg>