<svg id="Layer_1" data-name="Layer 1" xmlns="http://www.w3.org/2000/svg" xmlns:xlink="http://www.w3.org/1999/xlink" viewBox="0 0 568.17 635.17"><defs><style>.cls-1,.cls-7,.cls-9{fill:none;}.cls-2{fill:#333;}.cls-3{font-size:90px;fill:#f79420;font-family:Bauhaus93, Bauhaus 93;letter-spacing:-0.01em;}.cls-4{clip-path:url(#clip-path);}.cls-5,.cls-6{fill:#fff;}.cls-10,.cls-6,.cls-7,.cls-9{stroke:#fff;}.cls-6,.cls-7{stroke-miterlimit:10;}.cls-10,.cls-7{stroke-width:30px;}.cls-10,.cls-8{fill:#f89522;}.cls-9{stroke-linejoin:bevel;stroke-width:20px;}.cls-10{stroke-linejoin:round;}</style><clipPath id="clip-path" transform="translate(206.17 239.17)"><rect class="cls-1" x="45.47" y="12.45" width="308.1" height="308.1" rx="9.22" ry="9.22"/></clipPath></defs><title>logo_pendant</title><g id="Layer_1-2" data-name="Layer 1"><path class="cls-2" d="M46.73,4H352.27C357.65,4,362,9.25,362,15.73V384.27c0,6.48-4.35,11.73-9.73,11.73H46.73c-5.38,0-9.73-5.25-9.73-11.73V15.73C37,9.25,41.35,4,46.73,4Z" transform="translate(206.17 239.17)"/><text class="cls-3" transform="translate(247.17 613.84) scale(1 0.8)">ReTurny</text><g class="cls-4"><path class="cls-5" d="M54.67-200.76a221,221,0,0,1,86.57,17.47,221.63,221.63,0,0,1,70.68,47.68,221.93,221.93,0,0,1,47.69,70.68,221,221,0,0,1,17.49,86.6,221.15,221.15,0,0,1-17.46,86.57A221.82,221.82,0,0,1,212,178.92a221.82,221.82,0,0,1-70.68,47.69,221,221,0,0,1-86.6,17.49A221.15,221.15,0,0,1-31.9,226.64,221.93,221.93,0,0,1-102.58,179,221.71,221.71,0,0,1-167.76,21.67,221,221,0,0,1-150.29-64.9a221.74,221.74,0,0,1,47.68-70.68,221.74,221.74,0,0,1,70.68-47.68,221.16,221.16,0,0,1,86.6-17.5m0-38.41c-144.06,0-260.84,116.78-260.84,260.84S-89.39,282.52,54.67,282.52,315.52,165.73,315.52,21.67,198.73-239.17,54.67-239.17Z" transform="translate(206.17 239.17)"/><path class="cls-6" d="M45.84,135.54V311.2a8.94,8.94,0,0,0,8.95,9h47.52a9,9,0,0,0,8.75-10.88L72.2,132.68C68.77,117.1,45.84,119.59,45.84,135.54Z" transform="translate(206.17 239.17)"/><path class="cls-6" d="M165,12.84H302.49L301,68.92,162.17,38.41C147.05,35.09,149.47,12.84,165,12.84Z" transform="translate(206.17 239.17)"/><line class="cls-7" x1="389.15" y1="389.15" x2="527.84" y2="527.84"/><line class="cls-1" x1="389.15" y1="389.15" x2="527.84" y2="527.84"/><path class="cls-5" d="M45.84-91.66A103.87,103.87,0,0,1,119.73-61a103.87,103.87,0,0,1,30.6,73.89,103.9,103.9,0,0,1-30.6,73.89,103.9,103.9,0,0,1-73.89,30.6A103.87,103.87,0,0,1-28,86.73,103.87,103.87,0,0,1-58.66,12.84,103.84,103.84,0,0,1-28-61,103.84,103.84,0,0,1,45.84-91.66m0-23A127.55,127.55,0,1,0,173.38,12.84,127.56,127.56,0,0,0,45.84-114.71Z" transform="translate(206.17 239.17)"/><circle class="cls-8" cx="252.01" cy="252.01" r="44.56"/><path class="cls-5" d="M45.84-20.2a33,33,0,1,1-33,33,33,33,0,0,1,33-33m0-23a56.09,56.09,0,1,0,56.08,56.09A56.09,56.09,0,0,0,45.84-43.25Z" transform="translate(206.17 239.17)"/><path class="cls-5" d="M45.84-4.07a16.91,16.91,0,1,0,16.9,16.91A16.91,16.91,0,0,0,45.84-4.07Z" transform="translate(206.17 239.17)"/><rect class="cls-9" x="153.83" y="116.02" width="37.57" height="47.18" transform="translate(158.01 402.12) rotate(-45)"/><polygon class="cls-10" points="452.16 548.2 548.2 452.16 548.2 548.2 452.16 548.2"/></g></g></svg>