<svg xmlns="http://www.w3.org/2000/svg" xmlns:xlink="http://www.w3.org/1999/xlink" viewBox="0 0 411 411"><defs><style>.cls-1,.cls-5,.cls-7{fill:none;}.cls-2{clip-path:url(#clip-path);}.cls-3,.cls-4{fill:#fff;}.cls-4,.cls-5,.cls-7,.cls-8{stroke:#fff;}.cls-4,.cls-5{stroke-miterlimit:10;}.cls-4{fill-rule:evenodd;}.cls-5,.cls-8{stroke-width:30px;}.cls-6,.cls-8{fill:#f79420;}.cls-7{stroke-linejoin:bevel;stroke-width:20px;}.cls-8{stroke-linejoin:round;}</style><clipPath id="clip-path"><rect class="cls-1" x="5.02" y="5" width="401" height="401" rx="12" ry="12"/></clipPath></defs><title>logo</title><g id="Layer_1" data-name="Layer 1"><g class="cls-2"><path class="cls-3" d="M17-272.5a287.7,287.7,0,0,1,112.67,22.73,288.73,288.73,0,0,1,92,62.06,288.73,288.73,0,0,1,62.06,92A287.7,287.7,0,0,1,306.5,17a287.7,287.7,0,0,1-22.73,112.67,288.73,288.73,0,0,1-62.06,92,288.73,288.73,0,0,1-92,62.06A287.7,287.7,0,0,1,17,306.5,287.7,287.7,0,0,1-95.67,283.77a288.73,288.73,0,0,1-92-62.06,288.73,288.73,0,0,1-62.06-92A287.7,287.7,0,0,1-272.5,17,287.7,287.7,0,0,1-249.77-95.67a288.73,288.73,0,0,1,62.06-92,288.73,288.73,0,0,1,92-62.06A287.7,287.7,0,0,1,17-272.5m0-50c-187.5,0-339.5,152-339.5,339.5S-170.5,356.5,17,356.5,356.5,204.5,356.5,17,204.5-322.5,17-322.5Z"/><path class="cls-4" d="M5.5,165.21V393.83A11.66,11.66,0,0,0,17.17,405.5H79a11.66,11.66,0,0,0,11.39-14.17L39.82,161.48C35.35,141.2,5.5,144.45,5.5,165.21Z"/><path class="cls-4" d="M160.54,5.5h179l-2,73L156.92,38.79C137.24,34.47,140.39,5.5,160.54,5.5Z"/><line class="cls-5" x1="184" y1="184" x2="364.5" y2="364.5"/><line class="cls-3" x1="184" y1="184" x2="364.5" y2="364.5"/><path class="cls-3" d="M5.5-130.5a135.14,135.14,0,0,1,96.17,39.83A135.14,135.14,0,0,1,141.5,5.5a135.14,135.14,0,0,1-39.83,96.17A135.14,135.14,0,0,1,5.5,141.5a135.14,135.14,0,0,1-96.17-39.83A135.14,135.14,0,0,1-130.5,5.5,135.14,135.14,0,0,1-90.67-90.67,135.14,135.14,0,0,1,5.5-130.5m0-30a166,166,0,1,0,166,166,166,166,0,0,0-166-166Z"/><circle class="cls-6" cx="5.5" cy="5.5" r="58"/><path class="cls-3" d="M5.5-37.5a43,43,0,0,1,43,43,43,43,0,0,1-43,43,43,43,0,0,1-43-43,43,43,0,0,1,43-43m0-30a73,73,0,1,0,73,73,73,73,0,0,0-73-73Z"/><path class="cls-3" d="M5.5-16.5a22,22,0,1,0,22,22,22,22,0,0,0-22-22Z"/><rect class="cls-7" x="146.05" y="139.8" width="48.9" height="61.41" transform="translate(-70.62 170.5) rotate(-45)"/><polygon class="cls-8" points="266 391 391 266 391 391 266 391"/></g></g></svg>