<?xml version="1.0" encoding="utf-8"?>
<!-- Generator: Adobe Illustrator 22.1.0, SVG Export Plug-In . SVG Version: 6.00 Build 0)  -->
<svg version="1.1" id="Layer_1" xmlns="http://www.w3.org/2000/svg" xmlns:xlink="http://www.w3.org/1999/xlink" x="0px" y="0px"
	 viewBox="0 0 44 44" style="enable-background:new 0 0 44 44;" xml:space="preserve">
<g>
	<g>
		<path d="M21.6,8c-6.2,0-11.3,4.2-13,10.1l0,0c0,0.1-0.1,0.2-0.1,0.3c0,0.6,0.4,1,1,1c0.4,0,0.8-0.3,0.9-0.7l0,0
			c1.4-5,5.9-8.6,11.1-8.6c0.5,0,1-0.4,1-1S22.1,8,21.6,8z"/>
	</g>
</g>
<g>
	<g>
		<path d="M22,4C12.1,4,4,12.1,4,22c0,0.6,0.4,1,1,1s1-0.4,1-1c0-8.8,7.2-16,16-16c0.6,0,1-0.4,1-1S22.6,4,22,4z"/>
	</g>
</g>
<g>
	<g>
		<path d="M22,21c-0.6,0-1,0.4-1,1s0.4,1,1,1s1-0.4,1-1S22.6,21,22,21z M22,15c-3.9,0-7,3.1-7,7s3.1,7,7,7s7-3.1,7-7S25.9,15,22,15z
			 M22,27c-2.8,0-5-2.2-5-5s2.2-5,5-5s5,2.2,5,5S24.8,27,22,27z M22,0C9.9,0,0,9.9,0,22s9.9,22,22,22s22-9.8,22-22S34.2,0,22,0z
			 M22,42C11,42,2,33,2,22S11,2,22,2s20,9,20,20S33,42,22,42z"/>
	</g>
</g>
</svg>
