<?xml version="1.0" encoding="utf-8"?>
<!-- Generator: Adobe Illustrator 22.0.1, SVG Export Plug-In . SVG Version: 6.00 Build 0)  -->
<svg version="1.1"
	 id="svg" inkscape:version="0.48.4 r9939" sodipodi:docname="us.svg" xmlns:cc="http://creativecommons.org/ns#" xmlns:dc="http://purl.org/dc/elements/1.1/" xmlns:inkscape="http://www.inkscape.org/namespaces/inkscape" xmlns:rdf="http://www.w3.org/1999/02/22-rdf-syntax-ns#" xmlns:sodipodi="http://sodipodi.sourceforge.net/DTD/sodipodi-0.dtd" xmlns:svg="http://www.w3.org/2000/svg"
	 xmlns="http://www.w3.org/2000/svg" xmlns:xlink="http://www.w3.org/1999/xlink" x="0px" y="0px" viewBox="0 0 1000 589"
	 style="enable-background:new 0 0 1000 589;" xml:space="preserve">
<style type="text/css">
	.st0{fill:#F79420;stroke:#000000;stroke-width:0.9706;stroke-linejoin:round;}
	.st1{fill:#F9F9F9;stroke:#000000;stroke-width:0.9706;stroke-linejoin:round;}
</style>
<path id="MA" inkscape:connector-curvature="0" class="st0" d="M956.3,153.1l-0.3-0.2v0.3L956.3,153.1L956.3,153.1z M953.4,150.4
	l0.7-0.3v-0.4L953.4,150.4L953.4,150.4z M965.4,142.9l-0.1-1.4l-0.2-0.8L965.4,142.9z M923,132.9l-0.7,0.3l-5.5,1.7l-1.9,0.7
	l-2.2,0.7l-0.8,0.3v0.3l0.3,5l0.3,4.7l0.3,4.3l0.5,0.3l1.7-0.5l7.9-2.3l0.2,0.5l14-5.3l0.1,0.2l1.3-0.5l4.5-1.7l4.3,5.1l0,0l0.6-0.5
	l0.3-1.5l-0.1,2.3l0,0h1l0.3,1.2l0.9,1.7l0,0l4.6-5.5l3.8,1.3l0.9-1.9l6.2-3.3l-2.6-5.1l0.7,3.3l-3.2,2.4l-3.6,0.3l-7.2-7.7
	l-3.2-4.9l3.2-3.4l-3.3-0.2l-1.4-3.2l-0.1-0.2l-5.5,6l-12.2,4.1L923,132.9L923,132.9z"/>
<path id="MN" inkscape:connector-curvature="0" class="st1" d="M558.5,73.8l1.9,6.9l4.1,24.8l1.9,9.9l0.6,8.7l2.2,5.2l0.5,4.5
	l0.4,1.5l-0.1,0.3l-3.9,6.4l2.5,4.3l4.9,34.2l0.2,4.5l4.9-0.3l19.1-1.1l47.8-4l4.8-0.5v-0.5l-1.4-7.5l-5.9-3l-4.7-4.9l-7.4-4.5
	l-2.3-0.2L625,156l1-13.4l-3.4-3.1l1.2-5.4l6.2-5.6l-1.1-11.6l2.2-2.5l0,0l7.6-8l8.6-11.1l3.3-2.3l5.8-2.8l6.1-4.6l-4.1,0.8
	l-2.4-1.8l-9.3,1.3l-1.5-1.7l-8.3,3.4l-6.7-2.8l-1.8-2.2l-5.3,0.4l-3.6-1.8l1.2-1.4l-4.6-1.5H612l-6.5,2.8l-1.3-1.9L594,77.4
	l-3.5-8.7l-0.4-2.6l-4.5-1.3l0.4,7.5l-11.8,0.9l-14.7,0.6L558.5,73.8L558.5,73.8z"/>
<path id="MT" inkscape:connector-curvature="0" class="st1" d="M465.7,73l-32.1-2.1l-23.4-2.2l-23.3-2.7l-14.5-1.9l-23.1-3.6
	l-11.6-1.9l-25.8-5l-2.7-0.6L305,72.7l1.8,3.6l1.5,5.5l-0.9,0.8l1.8,5l2.5,2.1l7.2,12l0.7,2l2.9-0.2l-3.4,15.9l-1.4,0.4l-1.8,5.3
	l9.6,0.7l0.8,4.5l5.4,13.3l1,0.8l3.8,7.8l1-0.8l8.1-0.1l10.2,1.1l2.5-3.3l3,5.4l0.6,0.3l0.1-0.6l1.4-9.5l33.2,4.1l26.5,2.5l14,1.2
	L462,154l1.3,0.1h0.3l0.1-1.4l0.3-6.7l0.4-8.8l0.1-2.2l0.2-3.9l1.6-30.5l1.3-23.7l0.1-3.9L465.7,73L465.7,73z"/>
<path id="ND" inkscape:connector-curvature="0" class="st1" d="M556.5,73.8l-29.3,0.6l-20.5-0.1l-17.6-0.4l-20.6-0.8l-1.1-0.1
	l-0.1,3.9l-1.3,23.7l-1.6,30.5l-0.2,3.9l3.8,0.2l42.8,1.2l39.5-0.3l16.4-0.5l3.3-0.2l-0.4-1.5l-0.5-4.5l-2.2-5.2l-0.6-8.7l-1.9-9.9
	l-4.1-24.8l-1.9-6.9L556.5,73.8L556.5,73.8z"/>
<path id="HI" inkscape:connector-curvature="0" class="st1" d="M416.3,515l-3-2.2l-2.6,0.7l0.6,5.4l-3.6,4.5l3.1,7.1l0.9,7.3
	l3.6,2.3l2.2-3.6l4-2.9l4.9-1.3l5.3-4.6l-5.2-4.5l-0.1-2.7L416.3,515L416.3,515z M398.7,507.1l-1.5-1.3l-1.4,1.8L398.7,507.1
	L398.7,507.1z M391.4,503l0.4-3.6l-1.8-0.3L391.4,503L391.4,503z M397.5,497l-1.7,0.8l1.2,3.7l2.5,0.2l0.8,3.2l2.7,1.2l6-2.8
	l-5.6-4.7L397.5,497L397.5,497z M385.1,493.1l-0.9,2.6l4.2-0.1l3.9,1l-2-3.2L385.1,493.1L385.1,493.1z M372.9,485.4l-2.2-2.1
	l-4.3,3.3l2.7,5l1.9-2l5.5,1.2l-0.5-2.3L372.9,485.4L372.9,485.4z M329.4,481.1l0.6-1.4l1.7-0.9L329.4,481.1L329.4,481.1z
	 M344.8,472.3l-6.8,2.5l-0.7,1.8l2.7,1.9l3.8,1l2.7-5.3L344.8,472.3L344.8,472.3z M297.7,454.4L297.7,454.4l-0.2-0.1L297.7,454.4z
	 M246.3,441.7v0.2h0.1L246.3,441.7z M219.3,437.3L219.3,437.3L219.3,437.3L219.3,437.3z M218.2,435.3L218.2,435.3L218.2,435.3
	L218.2,435.3z M217.4,434.3h-0.2v0.1L217.4,434.3z M218,434.3L218,434.3L218,434.3L218,434.3z M218,434.2L218,434.2L218,434.2
	L218,434.2z M187.5,409.2l-0.1-0.3v0.1L187.5,409.2L187.5,409.2z M121,387.9l-0.3,0.3l0.2,0.1L121,387.9L121,387.9z M50.6,338.9
	L50.6,338.9L50.6,338.9L50.6,338.9z M53,339L53,339L53,339L53,339z M52.6,338.9L52.6,338.9L52.6,338.9L52.6,338.9z M11.1,320.8
	l0.3-0.1v-0.2L11.1,320.8L11.1,320.8z"/>
<path id="ID" inkscape:connector-curvature="0" class="st1" d="M309.1,52.9l-8.6-1.7l-2.8-0.7l-1.3-0.3l-11.3,50.7l0.5,4.2l-0.4,4.4
	l0.2,1v0.1l0.1,1.8l3.3,3.6l-4.8,11.9L274,141l-0.3,2.4l2.6,6.2l-9.2,38.2l-0.4,2l2.7,0.6l27.5,5.4l11,2l2.8,0.5l2.7,0.5l14,2.2
	l25,3.8l2.8,0.4l0.4-3.2l0.9-6.3l3.3-25.2l1.7-12.5l0.4-3.2l-0.6-0.3l-3-5.4l-2.5,3.3l-10.2-1.1l-8.1,0.1l-1,0.8l-3.8-7.8l-1-0.8
	l-5.4-13.3l-0.8-4.5l-9.6-0.7l1.8-5.3l1.4-0.4l3.4-15.9l-2.9,0.2l-0.7-2l-7.2-12l-2.5-2.1l-1.8-5l0.9-0.8l-1.5-5.5l-1.8-3.6
	L309.1,52.9L309.1,52.9L309.1,52.9z"/>
<path id="WA" inkscape:connector-curvature="0" class="st0" d="M192.1,77.1l0.1-1.7l-0.2,0.1L192.1,77.1L192.1,77.1z M212.8,68.2
	l0.6-1l-0.7-0.1L212.8,68.2L212.8,68.2z M211,66.5l0.6-1.9l-0.6-0.2V66.5z M218,63.7l-0.1-1.9l-1.7,2.5L218,63.7L218,63.7z
	 M218.2,59.6l0.3-1.9l-0.2-0.5L218.2,59.6L218.2,59.6z M218.5,50.1l-0.1-1.1l-0.4-0.1L218.5,50.1L218.5,50.1z M221.6,43.7l-0.9-0.1
	l-1.7,2.7L221.6,43.7z M219.2,41l0.5-0.4l0.1-0.3L219.2,41L219.2,41z M218.7,41.3l-0.3-1.9l-0.9,1.7L218.7,41.3L218.7,41.3z
	 M218.2,38.6l-0.9-0.4l0.7,1L218.2,38.6L218.2,38.6z M221.2,40.3V39l-0.3,0.5L221.2,40.3z M222,39l-0.4-0.3h-0.1L222,39L222,39z
	 M216.5,36.9l-0.5-0.4l-0.2-0.1L216.5,36.9z M220.1,36.5l-2.6,0.7l0.7,0.2L220.1,36.5z M218,36.3l-0.5-0.6l-0.1,0.1L218,36.3
	L218,36.3z M220,35.1h-0.4l0.5,0.2L220,35.1L220,35.1z M201,84.9l3.5,3.8l-0.6,7.3l0.7,1.8l5.2,2.8l14.8,1.4l0.6,1.7l7,0.1l6.6,0.9
	l10.8-1.2l5.3,0.9l1.5-0.7l27.3,6.2l1.8,0.4l-0.2-1l0.4-4.4l-0.5-4.2l11.3-50.7l-1.6-0.3l-22.7-5.3l-19.8-5l-22.4-6.2l-6.7-1.7
	l1.6,8.4l-1.5,2.7l-2.6-1.4l2.5,11.7l-2.7,3.9l-1.3,3.6v3.7l-5.7,4l-2.4-1.6l-2.3,1.2l4.3-5.5l-1.1,3.8l2.4-2.6l1.9,0.4l-0.6-4.9
	l1.3,0.2l2.6-5.8l-0.9-0.9l-3.4,4.4l-2.2,0.1l2.4-2.7l2.7-0.7l-1-5l-2.7-0.7l-1.4-2.3l-1.7,0.9l-8.9-3.9l-7.9-6.1l-2.1,5.9l-0.2,2.5
	l1.7,4.5L193,63.9l-0.8,2.2l4.4,0.4l-4.4,3.1l2.3,1.2l-1.8,6.2l-0.9-4.9l-1.7,5.6l2.2,2.7l2.4-0.2l2.9,1.7l1.5,2.8L201,84.9
	L201,84.9L201,84.9z"/>
<path id="AZ" inkscape:connector-curvature="0" class="st1" d="M372.2,309.9l-32.7-4.1l-17.6-2.5l-25-4l-2.5-0.4v0.2l-4.3,18.8
	l-2.2-0.1l-3.4-3l-4.3,3.6l-0.1,15.4l-1.6,3.3v0.3v0.1l-0.2,2.4l3.4,9.1l3,4.1l-5.4,3.2l-2.1,4l-3.5,8.5l-1.7,0.4l-0.1,7.1l3,2.2
	l-1.6,4.3l-3.5,0.2l0,0l-2,3.8l7,4.4l13.2,7.4l40.8,21.6l34.6,4.3h0.4l2.7-28.6l0.7-7.1l7.3-75.1l0.4-3.5L372.2,309.9L372.2,309.9z"
	/>
<path id="CA" inkscape:connector-curvature="0" class="st0" d="M206,363.8l0.4,2.1v0.4L206,363.8L206,363.8z M191.7,355.4l0.7,1.5
	l0.4-0.1L191.7,355.4L191.7,355.4z M208.7,355.1l0.3,2.5l1.7,1.3L208.7,355.1z M197,341.4l-1.1-0.3l0.9,0.4L197,341.4L197,341.4z
	 M186.2,338.4l-2.6,1.6l0.7,0.7L186.2,338.4z M181.2,336.6l-0.2,0.8l0.9,0.2L181.2,336.6L181.2,336.6z M189.7,338.5l4.3,2.4l0.8-0.7
	L189.7,338.5z M156.6,253L156.6,253L156.6,253L156.6,253z M167,253.5l-0.1-0.3L167,253.5L167,253.5L167,253.5z M223,179.8l-3.8-1
	l-41.5-11.5l-15.4-4.7v0.4l-0.9,9.6l-4.1,11.4l-6.8,8.4l-0.2,4.3l3.3,5.9l1.7,7.8l-2.3,6.3l0.4,6.3l-1.2,2.6l4,8.6l2.5,3.3l-0.2,9.4
	l6,5.7l3.5-5.8l3.8,3l1.5-1.4l-5.2,1l-0.1,5l1.1,6.2L166,258l-1.7-3.8l-0.5,5.2l1.4,10.4l5.4,6.7l-3.6,4.7l0.6,5.9l3.9,6l6.8,18.6
	l2.1,1.2l-0.7,12.9l1.1,1.6l14.6,5.2l4.5,4.8l1.6,3.1l4.3,2.4l4.7,0.9l1.9,5.3l3.9,1.8l5.8,6.9l5.4,9l-0.4,8.3l3,4l39.7,3.9l0,0
	l3.5-0.2l1.6-4.3l-3-2.2l0.1-7.1l1.7-0.4l3.5-8.5l2.1-4l5.4-3.2l-3-4.1l-3.4-9.1l0.2-2.4v-0.1l-2.5-3.4l-7.8-10.4l-15-21.2l-21-30.1
	L220.4,256l-11.5-16.5l13.2-56L223,179.8L223,179.8z"/>
<path id="CO" inkscape:connector-curvature="0" class="st1" d="M489.6,255.5l0.4-19l-4.7-0.2l-23.7-0.9l-2.3-0.1l-1.9-0.1l-28.8-1.8
	l-19.2-1.6l-24-2.3l-2.3-0.3l-0.3,2.5l-5.2,50.6l-1.8,17.7l-0.8,7.7l-0.2,2.5l3,0.3l48.9,4.3l21.5,1.4l21.5,1l3.1,0.1l1.9,0.1
	l4.1,0.1l1.9,0.1l6.1,0.2h1.6v-1.9l1.1-51.3l0.1-5.7v-1.8L489.6,255.5L489.6,255.5z"/>
<path id="NV" inkscape:connector-curvature="0" class="st0" d="M294.8,295.8l10.1-62.8l5.1-31.4l0.6-3.1l-2.8-0.5l-11-2l-27.5-5.4
	l-2.7-0.6l-2.7-0.6l-13.7-3l-24.6-5.8l-2.7-0.7l-0.9,3.7l-13.2,56l11.5,16.5l11.8,16.4l21,30.1l15,21.2l7.8,10.4l2.5,3.4v-0.3
	l1.6-3.3l0.1-15.4l4.3-3.6l3.4,3l2.2,0.1l4.3-18.8v-0.2L294.8,295.8L294.8,295.8z"/>
<path id="NM" inkscape:connector-curvature="0" class="st1" d="M472.5,324.8l0.1-2.5l0.1-2.5l0.1-2.5l-3.1-0.1l-21.5-1l-21.5-1.4
	l-48.9-4.3l-3-0.3l-0.4,3.5l-7.3,75.1l-0.7,7.1l-2.7,28.6l0.4,0.1l13.4,1.3l1.3-6.8l2.4-1.9l27.2,2.4h0.2l-2.4-4.8l12.3,0.9
	l30.8,1.7l19.2,0.9l3.3-91l0.7,0.1L472.5,324.8L472.5,324.8z"/>
<path id="OR" inkscape:connector-curvature="0" class="st0" d="M162.2,162.8l15.4,4.7l41.5,11.5l3.8,1l2.7,0.7l24.6,5.8l13.7,3
	l2.7,0.6l0.4-2l9.2-38.2l-2.6-6.2l0.3-2.4l10.1-13.2l4.8-11.9l-3.3-3.6l-0.1-1.8v-0.1l-1.8-0.4l-27.3-6.2l-1.5,0.7l-5.3-0.9
	l-10.8,1.2l-6.6-0.9l-7-0.1l-0.6-1.7l-14.8-1.4l-5.2-2.8l-0.7-1.8l0.6-7.3l-3.5-3.8l-0.3,0.1l-0.7,0.5l-4.9-2.5l-2.9,0.9l-1.9-1
	l-2,8.3l-1.4,2.3l-6,14.7l-1.7,8.1l-1.1,0.1l-5.6,13.4l-3.8,5.7l-1.4,1l-3.5,6.8l-0.7,7.2l-2.1,6.4L162.2,162.8L162.2,162.8
	L162.2,162.8z M197.8,83.1l-0.3-0.9l-0.1,0.7L197.8,83.1L197.8,83.1z"/>
<path id="UT" inkscape:connector-curvature="0" class="st0" d="M352.4,205l-25-3.8l-14-2.2l-2.7-0.5l-0.6,3.1l-5.1,31.4l-10.1,62.8
	l-0.5,3.1l2.5,0.4l25,4l17.6,2.5l32.7,4.1l2.5,0.3l0.2-2.5l0.8-7.7l1.8-17.7l5.2-50.6l0.3-2.5l-1.9-0.2l-24.8-3l-3.8-0.5l2.4-18.9
	l0.2-1.3L352.4,205L352.4,205z"/>
<path id="WY" inkscape:connector-curvature="0" class="st1" d="M461.4,192.2l0.8-15.1l1-20.4l0.1-2.5L462,154l-24.9-1.5l-14-1.2
	l-26.5-2.5l-33.2-4.1l-1.4,9.5l-0.1,0.6l-0.4,3.2l-1.7,12.5l-3.3,25.2l-0.9,6.3l-0.4,3.2l-0.2,1.3l-2.4,18.9l3.8,0.5l24.8,3l1.9,0.2
	l2.3,0.3l24,2.3l19.2,1.6l28.8,1.8l1.9,0.1l0.1-2.5l0.5-10.2l0.9-17.8l0.4-7.6l0.1-2.5L461.4,192.2L461.4,192.2z"/>
<path id="AR" inkscape:connector-curvature="0" class="st1" d="M690.5,328.1l-10.5,1.6l4.3-6.8l-1.8-3.8l-37,3.6l-31.3,2.5l-4.6,0.3
	l0.6,2.7l3.8,19.6l0.1,4.4l1.1,26.4l0.1,4.4l0.3,0.1l1.5,1.6l5.8-0.2l0.6,8.5l0.2,2.4l3-0.3l9.2-0.7l36.6-3.4h0.2l-0.1-2.1l1-0.7
	l-1.7-3.3l3.7-15.5l-1.5-1.7l5.5-6.1l-0.4-5.2l4.1-6.8v-0.1l-0.2-0.2l3.5-3.2l-1-3.9l2.7-4.3l-0.6-4L690.5,328.1L690.5,328.1
	L690.5,328.1L690.5,328.1z"/>
<path id="IA" inkscape:connector-curvature="0" class="st1" d="M661.5,197.7l-5.3-2.8l-2.9-4l-1-5.7l0.8-2.6l-2.8-3.4l0,0l-4.8,0.5
	l-47.8,4l-19.1,1.1l-4.9,0.3l-2,0.1l1.7,10.8L572,201l2.1,3.2v0.7l0.7,0.1l3.1,9.1l3,4.8l0.2,5.4l3.3,4.6l-0.6,1.9l3,12.2v0.3l0,0
	l19.9-0.6l21.3-1.8l20.9-2.6l4.8,4.2l0.2,0.2l0.9-0.4l-0.7-3.8l3.6-2.2l1.5-9.9l-1.5-0.7l0.9-5l4.4-0.9l4.9-3.5l2.1-6.1l0.1-3.1
	l-3.9-3.7l-1.2-2.3l-3.7-2.3l0.2-0.5L661.5,197.7L661.5,197.7z"/>
<path id="KS" inkscape:connector-curvature="0" class="st1" d="M608.9,312.7l-2.4-41.1l-4.4-2.5l-0.4-1.9l-3.5-3.1l3.4-4.2l-1.4-2.4
	l-2.5,0.1l-2.3-1.7l-1-0.8l-3.3,0.2l-35.8,1.4l-16.4,0.4h-32.6l-13.1-0.2l-3.7-0.1v1.8l-0.1,5.7l-1.1,51.3v1.9l4.2,0.1l22.5,0.3
	l52.7-0.8l37.6-1.7l3.7-0.3L608.9,312.7L608.9,312.7z"/>
<path id="MO" inkscape:connector-curvature="0" class="st1" d="M653.7,242.4l-4.8-4.2l-20.9,2.6l-21.3,1.8l-19.9,0.6l0,0l-0.1,0.6
	l2.4,4.7l2.2,1.6l2.6,4.7l0.4,0.4l1,0.8l2.3,1.7l2.5-0.1l1.4,2.4l-3.4,4.2l3.5,3.1l0.4,1.9l4.4,2.5l2.4,41.1l0.1,2.5l0.2,2.5
	l0.1,2.5l0.2,2.6l0.1,2.5l4.6-0.3l31.3-2.5l37-3.6l1.8,3.8l-4.3,6.8l10.5-1.6h0.1v-0.8l0.2-4.5l1.9-2.4l-0.6-2.7l-0.1-0.1l-0.1-0.1
	l0.4-1.3l0.6,0.2l0.3,0.8l-0.1,0.3v0.1v0.8l0.4,0.1l0.8-1v-0.1l0.1-0.3l2.5-1.6l0.4-0.2l0.9-8l-0.2-0.4l-0.3-0.1l-6.9-5.6l1.1-2
	l-1.9-5.5l-3.5-2.7l-6.6-2.9l-4.2-3.4l0.5-7l1.3-6.5l-7,0.4l-2.1-2.2l-1-4.5l-11.1-9.3l-3.1-8.6l0.8-4.3l0,0L653.7,242.4
	L653.7,242.4z"/>
<path id="NE" inkscape:connector-curvature="0" class="st1" d="M572.3,204.7l-3-3l-10.6-3.1l-3.4-0.1l-5.1,1.5l-6.1-3.9l-19.1,0.2
	l-27.9-0.3l-32.9-1.1l-2.9-0.1l-0.1,2.5l-0.4,7.6l-0.9,17.8l-0.5,10.2l-0.1,2.5l2.3,0.1l23.7,0.9l4.7,0.2l-0.4,19l-0.1,1.3l3.7,0.1
	l13.1,0.2h32.6l16.4-0.4l35.8-1.4l3.3-0.2l-0.4-0.4l-2.6-4.7l-2.2-1.6l-2.4-4.7l0.1-0.6V243l-3-12.2l0.6-1.9l-3.3-4.6l-0.2-5.4
	l-3-4.8l-3.1-9.1l-0.7-0.1L572.3,204.7L572.3,204.7z"/>
<path id="OK" inkscape:connector-curvature="0" class="st1" d="M609.5,322.9l-0.2-2.6l-0.1-2.5l-0.2-2.5l-3.7,0.3l-37.6,1.7
	l-52.7,0.8l-22.5-0.3l-4.2-0.1h-1.6l-6.1-0.2l-1.9-0.1l-4.1-0.1l-1.9-0.1l-0.1,2.5l-0.1,2.5l-0.1,2.5l-0.1,2.6h0.6l23.5,0.6
	l24.8,0.3l0.3,33.2l1.7,5.8l3.9,3.7l4.2,0.2l0.9-1.7l5.7,5.2l7.5,0.8l1.4,1.6l2.7-1.3l6.8,3.2v1.8l2.5-0.1l2.6-2.2l4.9,3.1l4.6,1.7
	l3.1-4.3l9.9,4.7l3.7-3l3-1.2l2.4,0.6l9.1-2.6l4.9,2l4.4,2.8l3.8,0.7h0.1l-0.1-4.4l-1.1-26.4l-0.1-4.4l-3.8-19.6l-0.6-2.7
	L609.5,322.9L609.5,322.9z"/>
<path id="SD" inkscape:connector-curvature="0" class="st1" d="M566.9,135.6l-16.4,0.5l-39.5,0.3l-42.8-1.2l-3.8-0.2l-0.1,2.2
	l-0.4,8.8l-0.3,6.7l-0.1,1.4h-0.3l-0.1,2.5l-1,20.4l-0.8,15.1l-0.1,2.6l2.9,0.1l32.9,1.1l27.9,0.3l19.1-0.2l6.1,3.9l5.1-1.5l3.4,0.1
	l10.6,3.1l3,3l1.8,0.2v-0.7L572,201l1.4-5.1l-1.7-10.8l2-0.1l-0.2-4.5l-4.9-34.2l-2.5-4.3l3.9-6.4l0.1-0.3L566.9,135.6L566.9,135.6z
	"/>
<path id="LA" inkscape:connector-curvature="0" class="st1" d="M689,469.3l-1.3,0.3l-0.6,0.6L689,469.3L689,469.3z M693.1,469.3
	l-0.7-0.3l-0.2,0.3H693.1z M695.4,468.5h-0.7l-0.4,0.5L695.4,468.5z M694.2,467.8l-0.2-0.3l-0.1,0.3H694.2L694.2,467.8z M702,462.7
	l-0.3,0.2h0.5L702,462.7L702,462.7z M715.6,457l0.6-0.8L715.6,457L715.6,457L715.6,457z M717.5,454.4l-0.2,0.1v0.1L717.5,454.4
	L717.5,454.4z M667.6,463l1.5-1.8l-4-1.1l-1.7,1.5L667.6,463L667.6,463z M707.9,454.5l-0.4-0.4l-0.1,0.2L707.9,454.5L707.9,454.5z
	 M709,452.8l-1-0.3l0.3,1L709,452.8z M717,451.1v-0.3v0.1V451.1L717,451.1z M718.9,449.9L718.9,449.9L718.9,449.9L718.9,449.9
	L718.9,449.9z M718.1,449.7l-0.2-0.1l-0.1,0.3L718.1,449.7L718.1,449.7z M711.3,449.4l0.9-0.3v-0.3L711.3,449.4L711.3,449.4z
	 M711.8,448.9l0.5-0.5l-0.1-0.1L711.8,448.9L711.8,448.9z M708.4,445.3l-0.2,0.2h0.1L708.4,445.3L708.4,445.3z M672.6,391h-0.2
	l-36.6,3.4l-9.2,0.7l-3,0.3l0.1,2.3l1.9,18.7l3.2,4.5l0.1,2.6l3.1,5.4l2.5,8l-0.9,4.5l-0.7,11.1l-1.5,3.6h0.2l0.3,2.5l-1.7,2.3
	l12-1.4l9.4,2.6l6.7,0.9l3.4-2.4l-1.8-2.4l6.2-1.9l-0.2,2.1l3.2-0.8l2.6,4.1l2.2-0.8l5.8,4l-3.6,1.3l8.3,2.4h3.1l1.8-2.2l4-2.1
	l2.8,4.1l1.9-3.7l-0.6-5.8l5.2,2l0.6,1.7l6.2,0.8l3.1,2.5l-0.4,2l4.4-4.1l-1.7-2.1l-7.3-1.8l-2.7-1.6l-0.1-2.9l3,0.4l2.3-4.8l-3-4.2
	l-1.7,4l-3.8-0.7l2.6-4.3l-1.7-0.5l-4.3,3l-6.1,0.4l-1.7-1.4l2.8-5l3.3-0.1l5.6,1.8l4.1,0.4l0,0l-2.2-2.8l-4.3-8.3l1.2-4.7
	l-33.5,3.7l1.3-1.3l-1.4-3.5l2-3l1.2-7.6l7.4-12.6l-3.6-4.4l0.2-3.2l-2.2-5.2L672.6,391L672.6,391z"/>
<path id="TX" inkscape:connector-curvature="0" class="st1" d="M574,536.9l-4.7-17.6v3.3L574,536.9z M572.9,506.1l-3.3,6.2l-0.4,2
	L572.9,506.1L572.9,506.1z M575.5,501.5l3.1-4.1l-2.2,1.4L575.5,501.5z M586.5,491.6l-7.3,3.8l2-0.4L586.5,491.6z M587.5,490.2
	l2-1.7l-0.8,0.2L587.5,490.2z M472.4,327.4l-0.7-0.1l-3.3,91l-19.2-0.9l-30.8-1.7l-12.3-0.9l2.4,4.8l0.1,0.1l10.5,10.5l6,7.1l8,5.9
	l5.6,10.3l2.1,10.8l4.6,3l3.6,4l5.1,1.8l7.5,4.8l3.4,1.3l4.7-4.7l1.5-5l2.4-4.8l7.6-3l2.9,1.5l8.4,0.7l7.7,4.8l5.2,1l-1.5,2.7l3,1.9
	l2.8,3.4l0.6,3.6l1.8,2.4l4.3,10.3l4.3,3.6l3.3,5.4l4.2,4.3l1.8,0.6l1.6,11.1l4.6,2.5l0.2,3.5l1.2-0.3l8,9.7l4,0.9l5,3h7.8l5.6,3.1
	l6.7-1.5l-3-2.8l-2.7-8.2l-1.1-7.1l-1.6-2.3l0.7-4.8l-2-0.2l-2.7-4.5l3.1,3.3l3.6-1.3l1.9-5.1l-3.9-5.2l5.8,0.7l2.7-4.2l-0.4-1.5
	l2.4-3.2l-0.6,2.8l2.7-2.1l-1.1-3.8l3.5,1.8l4.5-2.5l-4.4-4.6l2.7,1.1l5,0.3l6.6-1.5l7.4-5l4.5-3.7l0.7-2.7l2.7-2.8l-1.5-4.7
	l0.3-2.9l4.9-2.1l-0.4,5.1h2.9l-3.2,2.7l12.9-6.8l2.1-0.1l1.4-6.2h0.4l1.5-3.6l0.7-11.1l0.9-4.5l-2.5-8l-3.1-5.4l-0.1-2.6l-3.2-4.5
	l-1.9-18.7l-0.1-2.3l-0.2-2.4l-0.6-8.5l-5.8,0.2l-1.5-1.6l-0.3-0.1h-0.1l-3.8-0.7l-4.4-2.8l-4.9-2L593,380l-2.4-0.6l-3,1.2l-3.7,3
	l-9.9-4.7l-3.1,4.3l-4.6-1.7l-4.9-3.1l-2.6,2.2l-2.5,0.1v-1.8l-6.8-3.2l-2.7,1.3l-1.4-1.6l-7.5-0.8l-5.7-5.2l-0.9,1.7l-4.2-0.2
	l-3.9-3.7l-1.7-5.8l-0.3-33.2l-24.8-0.3l-23.5-0.6L472.4,327.4L472.4,327.4z"/>
<path id="CT" inkscape:connector-curvature="0" class="st1" d="M937,143.3l-14,5.3l-0.2-0.5l-7.9,2.3l-1.7,0.5l0.2,1l3.7,14.3
	l1.2,1.5l-2.5,3.1l1.7,1.7l0,0l5.6-5.4l3-4.2l0.6,1.2l14.2-6.3l0.3-0.3l-0.1-2.3l-0.6-2l-3-8.4l-0.4-1.1L937,143.3L937,143.3z"/>
<path id="NH" inkscape:connector-curvature="0" class="st1" d="M923.9,76l-1.3,1.6l-1.5-0.3l-0.8,6.4v0.1l2.3,8.7l-0.2,1.7l-4.2,5.5
	l1.1,5v6.3l-0.8,5.8l4.4,15.9l0,0l0,0l4-1.3l12.2-4.1l5.5-6l0,0V120l0.3-2.5l-0.7,0.3l-0.1-0.6l-6.1-7.5L938,109L923.9,76
	C923.9,76,923.9,76,923.9,76z"/>
<path id="RI" inkscape:connector-curvature="0" class="st1" d="M946.5,152.1l-0.1-2l-0.3,0.8L946.5,152.1L946.5,152.1z M948.4,150.5
	l-1.3-2.4l-0.1,2.5L948.4,150.5L948.4,150.5z M947.9,147.5l0.7,1.7l0.9,1.6l0.6-1.2l-0.9-1.7l-0.3-1.2h-1V147.5z M937.1,143.5
	l0.4,1.1l3,8.4l0.6,2l0.1,2.3l0.2-0.3l4.7-3.7l-0.9-6.6l1.9-0.4l0,0l-4.3-5.1l-4.5,1.7L937.1,143.5L937.1,143.5z"/>
<path id="VT" inkscape:connector-curvature="0" class="st0" d="M923,132.9l-4.4-15.9l0.8-5.8v-6.3l-1.1-5l4.2-5.5l0.2-1.7l-2.3-8.7
	l-1.3,0.5l-5.3,1.9l-5.2,2l-12,4.4l-0.7,0.2l4.4,10.2l1.5,9.6l5.1,8.1l4.9,15.9l0.2-0.1l0.8-0.3l2.2-0.7l1.9-0.7l5.5-1.7L923,132.9
	L923,132.9L923,132.9z"/>
<path id="AL" inkscape:connector-curvature="0" class="st1" d="M718.3,344.8l0.4,0.8l1.4,0.9l0.6,39.8l0.2,21.8l5,29.9l0.4-0.1
	l4.4,0.9l1.2-8.6l1.9,4.9l3.3,3l6.3-3.7l-0.7-0.6l0.2,0.1l-4.4-10l41.9-6.8l2.8-0.5v-0.1l-2.6-5l-0.2-7.1l-2.1-3.9l1.1-7.6l1.7-1.9
	l-7.2-12.8l-13-39.6l-0.1-0.2l-2.9,0.5l-15.5,2.5l-7.8,1l-16.3,2.2L718.3,344.8L718.3,344.8z"/>
<path id="FL" inkscape:connector-curvature="0" class="st1" d="M854.7,535.3h-0.2H854.7L854.7,535.3L854.7,535.3z M853.8,535.2
	L853.8,535.2L853.8,535.2L853.8,535.2z M854,535.1L854,535.1L854,535.1L854,535.1z M840.8,536.5L840.8,536.5L840.8,536.5
	L840.8,536.5z M840.6,536.6L840.6,536.6L840.6,536.6L840.6,536.6z M840.7,536.5L840.7,536.5L840.7,536.5L840.7,536.5z M839.7,536.6
	L839.7,536.6L839.7,536.6L839.7,536.6z M867.3,530.5L867.3,530.5v0.2V530.5z M869.9,529.8v-0.2l-0.2,0.3L869.9,529.8L869.9,529.8z
	 M869,529.7l-0.4-0.4l-0.1,0.1L869,529.7L869,529.7z M868.7,530.4l-1.2-1.5l0.7,1.3L868.7,530.4L868.7,530.4z M877.9,524.7v0.4
	l0.2-0.2L877.9,524.7z M879.2,523.7l0.3-0.5L879.2,523.7L879.2,523.7L879.2,523.7z M879.5,522.8L879.5,522.8L879.5,522.8
	L879.5,522.8z M877.8,522.5L877.8,522.5L877.8,522.5L877.8,522.5z M878.7,521L878.7,521L878.7,521L878.7,521L878.7,521z M876,520.9
	L876,520.9L876,520.9L876,520.9z M879.3,518.7l-0.2,0.1l0.3,0.1L879.3,518.7L879.3,518.7z M879.7,518.7l-0.2-0.2L879.7,518.7
	L879.7,518.7L879.7,518.7z M879,518.5L879,518.5L879,518.5L879,518.5L879,518.5z M882.6,517.8L882.6,517.8l-0.2,0.3L882.6,517.8
	L882.6,517.8z M878.6,518.2h-0.2H878.6L878.6,518.2z M880.6,517h-0.3l-0.1,0.1L880.6,517L880.6,517z M881.4,516.6L881.4,516.6
	L881.4,516.6L881.4,516.6z M873.2,516.9v-0.2V516.9L873.2,516.9z M874.1,516.6h-0.3l0.3,0.6V516.6z M871.8,516.7v-0.6l-0.5,0.1
	L871.8,516.7z M870.4,515.8l0.5,0.5v-0.2L870.4,515.8L870.4,515.8z M884.7,516.4l-1.7,0.8l0.6,0.1L884.7,516.4z M871.1,515.5h-0.6
	v0.2L871.1,515.5z M886.4,510.6l0.1-0.5l0.1-1.3L886.4,510.6L886.4,510.6z M886.5,505.2l-0.4-1l-0.2,0.4L886.5,505.2z M864.1,507.6
	l-0.2,0.3l0.5,0.1L864.1,507.6L864.1,507.6z M862.3,506.7l-0.9,0.3l0.7,0.1L862.3,506.7L862.3,506.7z M860.3,506.9v-0.3l-0.1,0.1
	L860.3,506.9L860.3,506.9z M858.3,506.8l-0.6,0.4l0.8,0.4L858.3,506.8L858.3,506.8z M861,506.9l-0.1-0.3l-0.5-0.1L861,506.9
	L861,506.9z M848.3,497.4l-0.6,0.3l1.2,0.4L848.3,497.4L848.3,497.4z M846,494.3l-0.8-1.2l0.3,0.9L846,494.3L846,494.3z M849,496.3
	l-1.4-3.1l-1-0.3L849,496.3z M845.1,492.4l-0.3-0.8l-0.2-0.5L845.1,492.4L845.1,492.4z M837,481.6l-1.7-1.3l0.7,0.7L837,481.6z
	 M880.7,475.1l-7.1-11.8h-0.4L880.7,475.1L880.7,475.1z M831.7,456.2l-0.3-0.1L831.7,456.2L831.7,456.2L831.7,456.2z M831.1,455.5
	L831.1,455.5v0.2V455.5L831.1,455.5z M830.4,454.5L830.4,454.5L830.4,454.5L830.4,454.5z M830.8,454.1l0.3,0.2v-0.2H830.8z
	 M831.4,453.8l-0.4,0.1h0.1L831.4,453.8L831.4,453.8z M830.7,453.7l-0.3-0.3l0.1,0.1L830.7,453.7L830.7,453.7z M830,452.6h-0.2H830
	L830,452.6L830,452.6z M830.7,451.4h-0.4l-0.1,0.1L830.7,451.4L830.7,451.4z M831.1,451.6l-0.5-0.5l0.2,0.1L831.1,451.6L831.1,451.6
	z M827.4,447.4l-0.2-0.1v0.1H827.4z M823.2,447.4l-0.3-0.4l0.1,0.5L823.2,447.4L823.2,447.4z M787.9,444.2l2.9-2.2l-3.2,2.1
	L787.9,444.2L787.9,444.2z M793.7,439.6l0.3-0.3l-1.2,0.5L793.7,439.6L793.7,439.6z M756.8,433.1l-10.6,3.4l5.8-1.7L756.8,433.1z
	 M783.2,416.6l-2.8,0.5l-41.9,6.8l4.4,10l0.3,0.1l-1.1,4l3.1-1.4l3.4-3l5.8-0.2l6.7-2.4l4.6,0.7l-1.1,1.7l8.3,2.8l7.2,3.5l1.7,3.9
	l5.3-1.2l12.6-10.3l4.7,0.2l19,14.4l3.9-0.8l4.1,5.4l0.8,8.6l-1.3,5.4l0.6,2.7l3.4,6.8l-1.6-5.3l4.4-0.1l0.4,3.9l-2.3,6l8.1,11.1
	l3,0.1l-2.5-3.4l3.1,0.4l1.8-1.2l-0.8,6.2l4.2,3.3l2.8,7.6l3.8,2.3l4.9,1.3l6.7,8.5l3.5,1.8l-4.7,0.3l2.1,2.4l7.7-2.5l3.8-2.1
	l3.5-12.2l-1.7-19l-0.4-1.9l-9.3-15.5l-8-11.3l-4.5-9.2l3.8,3.2l0.8-0.6l1.7,8.1l4.3,6.1l-4.2-8.2l0.2-3.9l-12.5-15.2l-3-4.8l-4-8.1
	l-2.7-6.8l-2.1-2.4l-0.5-3.1l-0.1-0.1l-6.7-0.4l-2.6,2l-1.5,7.5l-1.4-3.5l-45.8,5.7L783.2,416.6L783.2,416.6L783.2,416.6z"/>
<path id="GA" inkscape:connector-curvature="0" class="st1" d="M845.9,396.1l-0.1-2.9l-0.7,2.5L845.9,396.1L845.9,396.1z
	 M846.9,391.6l-0.4-2.2l-0.3,1.4L846.9,391.6z M801.5,330.5l-1.3,0.3l-3.7,0.8l-13.6,2.8l-1.3,0.3l-1.4,0.2l-7.6,1.5l-2,0.4
	l-8.3,1.6l-1.7,0.2l0.1,0.2l13,39.6L781,391l-1.7,1.9l-1.1,7.6l2.1,3.9l0.2,7.1l2.6,5v0.1l-0.1,0.1l3.3,5.1l45.8-5.7l1.4,3.5
	l1.5-7.5l2.6-2l6.7,0.4l0,0l-0.6-10.5l1.3-2.2l-0.7-4.2l1.4-4l2-2.2l-1.5-1.4l3.4-4.2h-0.1l-5.8-5.4l-8-11.4l-4.4-2l-18.7-15.7
	l-4.6-5.8l-8.8-3.7l-0.5-1.9L801.5,330.5L801.5,330.5L801.5,330.5z"/>
<path id="MS" inkscape:connector-curvature="0" class="st1" d="M716.8,442.8l-0.5,0.1v0.1L716.8,442.8L716.8,442.8z M725.8,441.6
	h-1.4H725.8L725.8,441.6L725.8,441.6z M714.5,442.6l-0.4,0.4l0.1,0.1L714.5,442.6L714.5,442.6z M723.7,441.8H720l3.5,0.1
	L723.7,441.8z M683.2,349.3L683.2,349.3l-4.1,6.9l0.4,5.2l-5.5,6.1l1.5,1.7l-3.7,15.5l1.7,3.3l-1,0.7l0.1,2.1v0.7l2.2,5.2l-0.2,3.2
	l3.6,4.4l-7.4,12.6l-1.2,7.6l-2,3l1.4,3.5l-1.3,1.3l33.5-3.7l-1.2,4.7l4.3,8.3l2.2,2.8v-0.1l3.6-4.1l7.6-1.7l7,0.8l1.1-1.4V438
	l-5-29.9l-0.2-21.8l-0.6-39.8l-1.4-0.9l-0.4-0.8h-0.2l-4.9,0.7l-8.5,1.2l-19.4,2.4L683.2,349.3L683.2,349.3z"/>
<path id="SC" inkscape:connector-curvature="0" class="st1" d="M801.5,330.5L801.5,330.5l-2.7,5.3l0.5,1.9l8.8,3.7l4.6,5.8
	l18.7,15.7l4.4,2l8,11.4l5.8,5.4l0,0l1-4.5l-1.6-4.3l4.2,3.1l2.3-1.8l-4-3.3l4.9-0.3l7.6-6.4l-0.9-1.7l4.7-3.6l-0.5-1.7l3.4-2.1
	l0.2-5l5.3-9.9l3.6-4.6l0.4-0.2l-21.6-13.7l-8.1,1.6l-11-0.4l-5.4-2.8l-32.2,10.2L801.5,330.5L801.5,330.5z"/>
<path id="IL" inkscape:connector-curvature="0" class="st1" d="M661.4,198.2l-0.2,0.5l3.7,2.3l1.2,2.3l3.9,3.7l-0.1,3.1l-2.1,6.1
	l-4.9,3.5l-4.4,0.9l-0.9,5l1.5,0.7l-1.5,9.9l-3.6,2.2l0.7,3.8l-0.9,0.4l0,0l-0.8,4.3l3.1,8.6l11.1,9.3l1,4.5l2.1,2.2l7-0.4l-1.3,6.5
	l-0.5,7l4.2,3.4l6.6,2.9l3.5,2.7l1.9,5.5l-1.1,2l6.9,5.6l0.3,0.1l-0.6-0.6l1.9-4.6l7.5,2l1.8-2.1l-1.5-4.3l6.1-3.6l-1.7-2.3l1.5-3.3
	V288l-0.4-0.1l0.1-8.6l2.1-1.6l3.7-8.6l-0.8-3.8l-2.4-4.6l1.4-5.1l-6.8-47.9l-1-1.1l-2.5-5.7l-2-2.1l-0.9-5.6v-0.2l-13.1,1.8l-7.9,1
	L661.4,198.2L661.4,198.2L661.4,198.2z"/>
<path id="IN" inkscape:connector-curvature="0" class="st1" d="M750.3,200.2l-14.9,2.6l-3.4,0.7l-12,1.9l-2.5,2l-3.8,1.7l-1.5-0.1
	l-1.7-0.9l-0.6-0.6l6.8,47.9l-1.4,5.1l2.4,4.6l0.8,3.8l-3.7,8.6l-2.1,1.6l-0.1,8.6l0.4,0.1l0.4-0.1l1.5-2.7h3.6l4.4-1.5l5.4,2
	l0.6-2.2l3.1-2.3l4.7,0.7l2.5-5l6.9,0.6l-0.1-2.8l6.1-8.1l-1-3.7l4.3-0.1l5.2-4.2l-1.3-4.8l0.2-0.2l-0.2-1.7l-5.8-34.4l-2.6-14.7
	l-0.3-1.6L750.3,200.2L750.3,200.2z"/>
<path id="KY" inkscape:connector-curvature="0" class="st0" d="M693.2,317.2l-0.3-0.8l-0.6-0.2l-0.4,1.3l0.1,0.1l1.1-0.1
	L693.2,317.2L693.2,317.2z M759.6,253.7l-0.2,0.2l1.3,4.8l-5.2,4.2l-4.3,0.1l1,3.7l-6.1,8.1l0.1,2.8l-6.9-0.6l-2.5,5l-4.7-0.7
	l-3.1,2.3l-0.6,2.2l-5.4-2l-4.4,1.5h-3.6l-1.5,2.7l-0.4,0.1v0.3l-1.5,3.3l1.7,2.3l-6.1,3.6l1.5,4.3l-1.8,2.1l-7.5-2l-1.9,4.6
	l0.6,0.6l0.2,0.4l-0.9,8l-0.4,0.2l-2.5,1.6l-0.1,0.3l2.8-0.4l19.6-2.6l-1-3.9l3.3-0.1l39.5-5.2l27.8-4.7l0.4-0.3l0.7-0.8l7.3-3.9
	l5.6-7.4l0.8-2.5l3.7-2.9l4.7-5.9l0.7-1l-0.3-0.1h-2.4l-3.1-1.7l-5.5-6.7l-1.9-6.8v-0.2l-0.2-0.2l-4.1-2.3l-1.8-3.1l-3.7,3.6
	l-2.3,0.6l-2.9-1.2l-2.5,1.9l-5.2-2.3l-1.4,0.6l-5-4.3l-2.5-1.3l-4.8,0.6L759.6,253.7L759.6,253.7z"/>
<path id="NC" inkscape:connector-curvature="0" class="st1" d="M890.2,332.2l-1.1,1.1l0.2,0.2L890.2,332.2L890.2,332.2z M891,326.6
	l-0.5,0.8l0.2,0.8L891,326.6L891,326.6z M896.8,317.6l-1.5,1l-0.8,1.2L896.8,317.6L896.8,317.6z M909.3,311.5l-0.6-0.4l-1.3-0.1
	L909.3,311.5L909.3,311.5z M906.7,310.9h-0.9l-1.5,0.8L906.7,310.9z M909.7,311.9l2.8-7l-1.9,2.9L909.7,311.9L909.7,311.9z
	 M913.9,302.7l1.3-1.8h-0.7L913.9,302.7z M922,295.2l-2.1-10.8l1.8,5.6L922,295.2L922,295.2z M910.2,270.6l-0.2,0.1l-0.3,0.1l0,0
	h0.1l5.3,9l4.2,4.2L910.2,270.6L910.2,270.6L910.2,270.6z M908.5,271.2l-0.8,0.2l0,0l0.2,0.1h1.7l-0.2-0.6l0,0L909,271h-0.3l0,0v0.2
	L908.5,271.2L908.5,271.2L908.5,271.2L908.5,271.2z M818.7,293.3l-0.5,1.5l0.1,4.2l-1.1-0.1l-2.5,5.1l-2.8,0.3l-5.2,5.1l-2.3-0.9
	l-3,4.5l-8,7.2l-3.9,1l-4.1,3.8l-0.2,2.5l-3.6,1.9l0.1,4.3v1l1.3-0.3l13.6-2.8l3.7-0.8l1.3-0.3h0.3l32.2-10.2l5.4,2.8l11,0.4
	l8.1-1.6l21.6,13.7l0.4-0.3l10-4.1l0.1-5.3l3.6-6.5l3.9-3.7l8.1-5.3l1.1-1.9l2.1,1l1-6.4l-1.2,2.2l-4.1,1.4l-3.9,0.1l4.8-3.5
	l-1.5-1.6l1.7-3.5l-9.1-1.5l-0.4-0.5l7.8-1.5l2.5,1.3l3.2-0.3l2.6-1.9l1.9-3.8l1.7-0.5l-0.3-5.3l-2.2-2.1l-2.2,2l0.5,5.1l-1.7-6.3
	l-1.3-0.3l-9.6,4l4.3-4.2l0.2-1.7l4.5-1.1l1.3-3.3l3,1.7l-3.2-4.8l-2.2-1.9l0,0l-38.8,11.1l-24.8,6.3l-25,4.7L818.7,293.3
	L818.7,293.3z"/>
<path id="OH" inkscape:connector-curvature="0" class="st1" d="M818.2,206.6l-2.4-10.5l-0.5-2.1l-2.7-11.9l-3.5,2.2l-7.5,5.7
	l-4.9,5.9l-3.8,0.6l-7,4l-3.9-2.3l-11.7-1.4l0,0l-6.2,1.6l-6.1,1.5l-6.4,1.4l-1,0.3l0.3,1.6l2.6,14.7l5.8,34.4l0.2,1.7l0.8-0.8
	l4.8-0.6l2.5,1.3l5,4.3l1.4-0.6l5.2,2.3l2.5-1.9l2.9,1.2l2.3-0.6l3.7-3.6l1.8,3.1l4.1,2.3l0.2,0.2l0,0l4.2-2l1.5-3.2l-1.2-3.3l3.3-5
	l2.4-0.4l-0.3-4.3l4-5.4l0.7,0.8l3.6-2.7l3.1-4.7l0.5-21.3l0.2-0.1L818.2,206.6L818.2,206.6z"/>
<path id="TN" inkscape:connector-curvature="0" class="st0" d="M786.3,300.5l-27.8,4.7l-39.5,5.2l-3.3,0.1l1,3.9l-19.6,2.6l-2.8,0.4
	v0.1l-0.8,1l-0.4-0.1v-0.8v-0.1l-1.1,0.1l0.1,0.1l0.6,2.7l-1.9,2.4l-0.2,4.5v0.8v0.1l-2.9,5.6l0.6,4l-2.7,4.3l1,3.9l-3.5,3.2
	l0.2,0.2l2.1-0.2l19.4-2.4l8.5-1.2l4.9-0.7h0.2l-0.1-0.2l16.3-2.2l7.8-1l15.5-2.5l2.9-0.5l1.7-0.2l8.3-1.6l2-0.4l7.6-1.5l1.4-0.2v-1
	l-0.1-4.3l3.6-1.9l0.2-2.5l4.1-3.8l3.9-1l8-7.2l3-4.5l2.3,0.9l5.2-5.1l2.8-0.3l2.5-5.1l1.1,0.1l-0.1-4.2l0.5-1.5l-1.6,0.3l-5.5,1.6
	l-6.6,1.4l-16.6,3.4l-1.7,0.3L786.3,300.5L786.3,300.5z"/>
<path id="VA" inkscape:connector-curvature="0" class="st0" d="M908.8,271h0.3l0.3-0.1l0,0l-0.2-0.5L908.8,271L908.8,271L908.8,271z
	 M905.5,260.1v0.5l0.5-0.3L905.5,260.1z M907.2,256.7l-0.1-0.8l0,0L907.2,256.7z M906.6,257.9l-0.2,1.3l-0.3,0.5L906.6,257.9
	L906.6,257.9z M907.5,255.4l0.1-0.6L907.5,255.4L907.5,255.4L907.5,255.4z M908.1,252.7l0.3-0.7l-0.5,1.7L908.1,252.7z M908.2,251.3
	l0.4-2.1l-0.5,0.5L908.2,251.3L908.2,251.3z M909.9,241.7l0.2-0.9L910,241L909.9,241.7L909.9,241.7z M909.5,239.4l-1.3,0.5l-1.9,0.9
	l-0.7,0.9l0.3,0.1l-2.3,14.5l0.9,2.3l1.4-6l2.5-7.9L909.5,239.4L909.5,239.4L909.5,239.4z M911.5,238.7l-0.3,0.1l-0.1,0.4l-0.5,3
	l0.4-1.1L911.5,238.7L911.5,238.7z M810,275.8l-0.7,1l-4.7,5.9l-3.7,2.9l-0.8,2.5l-5.6,7.4l-7.3,3.9l-0.7,0.8l1.7-0.3l16.6-3.4
	l6.6-1.4l5.5-1.6l1.6-0.3l0.1,0.2l25-4.7l24.8-6.3l38.8-11.1l0,0l-0.3-0.5l-0.1-0.3l0.7,0.7l0,0l0,0l0.8-0.2l-0.1-0.1l-0.7-3.3
	l0.5,0.1l1.6,2.9l0,0l0,0l0.3-0.1l0.2-0.1l-0.4-0.8l-4-6.1l-5,0.9l-2.2,1.8l-2.1-1.9l-7.3-2.4l-5-0.2l9.8-0.9l5.4,3.7l1.6-2.4
	l-4.4-5.5l3.1,0.2l-1.7-4.5l-3.9,0.2l-9.2-7.5h-1.2l13,6.4l-0.9-4.5l0.9-1.5l-6.6-2.5l-5.7-0.4l-2.8-2.5l-2.3,1.5l-0.9-6.7l1,0.2
	l-0.2-5.4l-0.2-0.2l-0.2,0.1l-0.2-0.1l-0.5-0.4l-0.3-0.3l-3.1-1.4l-3.2-2.3l-4.5-1.2l-0.3-0.1v0.1l-0.6,4.1l-9-3.9l0.2,5.6l-5,9.4
	l-3,3.3l-1.9,5.7l-5.9-2l-2.9,13.2l-2.3,4.5l-0.4,5.8l-1.7,2.8l-6.5,1.9l-5.3,4.2l-2.5,0.4l-2.4,2.1l-6.1-2.2l-1.1-3L810,275.8
	L810,275.8z"/>
<path id="WI" inkscape:connector-curvature="0" class="st0" d="M705.8,134.8l-2.4,3l-1.5,4.4l0.7,2.4L705.8,134.8z M650.1,112l1.5-2
	l-1.1,1L650.1,112z M652.3,108.8l-0.5-0.6l-1.1,0.7L652.3,108.8L652.3,108.8z M631.2,114.2l-2.2,2.5l1.1,11.6l-6.2,5.6l-1.2,5.4
	l3.4,3.1l-1,13.4l3.6,2.7l2.3,0.2l7.4,4.5l4.7,4.9l5.9,3l1.4,7.5v0.5l0,0l2.8,3.4l-0.8,2.6l1,5.7l2.9,4l5.3,2.8l-0.1,0.5l0,0
	l21.2-2.4l7.9-1l13.1-1.8l-0.4-1.5v-4.6l-2.6-4.9l-0.7-6.1l1.3-6.8l-0.7-5.2l2.3-6.5l-0.9-1.1l0.2-6l1.3-4.6l-1.5-1.6l-2.8,1
	l-1.6,4.1l-3.7,2.1l1.2-5.1l3.3-4.4l0.2-1.9l0.1-0.1l-4.7-4.7v-6.6l-5.2-4.3l-7.2-0.5l-7.4-1.9l-15.9-4.9l-3.1-1.7l-0.3,0.3l-5-0.7
	l-1.7,1l0.7-7.1l-8,4.1l-9.7,1.6L631.2,114.2L631.2,114.2z M650.2,109.1l-0.2-0.7l-0.7,0.3L650.2,109.1z M646.7,108.4l0.3-0.6
	l-0.2-0.2L646.7,108.4L646.7,108.4z M653.8,106.8l-0.3-1.4l-0.3,1.7L653.8,106.8z"/>
<path id="WV" inkscape:connector-curvature="0" class="st1" d="M836.7,223.7l-13.8,3.4l-4.3-18.4l0,0l-0.2,0.1L818,230l-3.1,4.7
	l-3.6,2.7l-0.7-0.8l-4,5.4l0.3,4.3l-2.4,0.4l-3.3,5l1.2,3.3l-1.5,3.2l-4.2,2l0,0v0.2l1.9,6.8l5.5,6.7l3.1,1.7h2.4l0.3,0.1l0.2,0.1
	l1.1,3l6.1,2.2l2.4-2.1l2.5-0.4l5.3-4.2l6.5-1.9l1.7-2.8l0.4-5.8l2.3-4.5l2.9-13.2l5.9,2l1.9-5.7l3-3.3l5-9.4l-0.2-5.6l9,3.9
	l0.6-4.1v-0.1l0,0l-2.8-4.9l-5.8-0.7l-3.4,2.6v1.9l-2.9,0.7l-4.3,3l-2.2,0.5l-4.5,6.3l-2.2-10.2L836.7,223.7L836.7,223.7z"/>
<path id="DE" inkscape:connector-curvature="0" class="st1" d="M893.8,207.7l0.4,1.5l8.1,23l9.2-2.7l-0.1-0.2h0.2l0.3,0.1l0,0
	l0.2-0.1l-0.2-0.4l-2.3-6.2l-11.4-10.8l0.5-7.5l0,0h-2.3l-1.7,1.4L893.8,207.7L893.8,207.7L893.8,207.7z"/>
<path id="DC" inkscape:connector-curvature="0" class="st1" d="M878.2,229.1l0.5,0.4l0.2,0.1l0.2-0.1l0.2,0.1l0.7,0.4l0.2,0.3v0.7
	l0.2,0.4l1.3-2.3l-1.4-0.8l-1.7,0.1L878.2,229.1L878.2,229.1z"/>
<path id="MD" inkscape:connector-curvature="0" class="st1" d="M911.6,238.3l0.7-5.2l-0.6,3.9l-0.4,1.7l-0.1,0.2l0.3-0.1
	L911.6,238.3L911.6,238.3z M912.1,229.2l-0.2,0.1l0.2,0.6v1.2V229.2L912.1,229.2L912.1,229.2z M838.7,223.2l2.2,10.2l4.5-6.3
	l2.2-0.5l4.3-3l2.9-0.7V221l3.4-2.6l5.8,0.7l2.8,4.9l0,0l0.3,0.1l4.5,1.2l3.2,2.3l3.1,1.4l0.3,0.3l0.4-0.8l1.7-0.1l1.4,0.8l-1.3,2.3
	v0.1l-1.8,5.6l6,3.9l6,0.3l4,1.8l-1.7-4.7l-5.1-1.7l-1.3-4l3.2,4.3l2.6,0.4l-2.3-2.3l-1.8-6.9l0.5-4l-2-4.4l2.1-1.7l1.6-5.6
	l-0.6,8.3l1.7,2.8l1.6-3.3l0.9,5.4l-1.7,4l4.8,1.7l-4.1,1.4l2.1,4l3.5,1.2l1.9-3.4l-0.2,4.8l3.3-0.1l2.1,2.4h0.1l0.7-0.9l1.9-0.9
	l1.3-0.5l-0.1-0.2l2.5-7.5v-0.3l-0.5-1.9v-0.1l-9.2,2.7l-8.1-23l-0.4-1.5l-1.7,0.5l-6.9,2.1l-38,10.6l-6.9,1.8L838.7,223.2
	L838.7,223.2z"/>
<path id="NJ" inkscape:connector-curvature="0" class="st1" d="M916.8,207.3l-0.5-1.2v1.2H916.8z M917.8,203.7l0.3-2.9l-0.6,2.5
	L917.8,203.7L917.8,203.7z M913.8,173.9l-10.2-2.5l-1.7-0.5l-1.7-0.4l0,0l-4.1,9l1.7,2.1l-0.1,6.5l1.8,0.3l3.8,9.9l-0.2,0.3l-4.8,7
	l0.5,5.3l11.5,3.9l0.1,4.5l2.6-3.7l0.4-5.3l2.7-1.8l-1.1-4l2-4.8v-10.4l-0.7-3.4l-4.6,0.1l1.2-4.7L913.8,173.9L913.8,173.9
	L913.8,173.9z"/>
<path id="NY" inkscape:connector-curvature="0" class="st0" d="M913.5,181.8l-1.5,2l-0.4,0.6L913.5,181.8z M926.9,177l4.9-4.3v-0.2
	L926.9,177L926.9,177z M914.2,180v-3.3l-0.3,1.7L914.2,180z M936.7,164.5l-1.2-0.3l-0.2,0.9L936.7,164.5z M939.3,162.8l-0.1,1
	l0.2-0.6L939.3,162.8L939.3,162.8z M936.6,162.9l-6.5,6l-10,4.3l-2.6,2.2l-0.2,2.1l-2.7,2.2l0.4,2.9l4.2-1.7l6.1-5l6.8-3.6l10.3-9.7
	l-7.3,5.5l-2.3,1L936.6,162.9L936.6,162.9z M939.6,158.8l0.4-0.6l-1.2,1.4L939.6,158.8z M830.5,155.2L829,155l1.2,1.6L830.5,155.2
	L830.5,155.2z M862.7,125.5l0.2-1.1l-0.8,1L862.7,125.5L862.7,125.5z M863.2,118.5l-0.4,0.2l-0.5,1.1L863.2,118.5L863.2,118.5z
	 M822.2,173.6l0.7,2.9l5.1,1.3l29.5-8.1l29.7-8.9l5.4,4.2l1.1,2.4l6.3,2.7l0.2,0.4l1.7,0.4l1.7,0.5l10.2,2.5l-0.2-0.5l0.9,4l1.9-0.5
	l1.1-4.4v-0.1l-1.7-1.7l2.5-3.1l-1.2-1.5l-3.7-14.3l-0.2-1l-0.5-0.3l-0.3-4.3l-0.3-4.7l-0.3-5v-0.3l-0.2,0.1l-4.9-15.9l-5.1-8.1
	l-1.5-9.6l-4.4-10.2l-0.6,0.3L875,99.9l-4.1,4.4l-4.6,8.7l0.2,1.9l-6,9.1l3.7,1.3l1.1,6.9l-4.3,5.6l-12.8,7.8l-2.4-1l-9.5,1.4
	l-8.8,5.3l0.5,2.8l3.1,2.7l-1.7,8.5L822.2,173.6L822.2,173.6L822.2,173.6z"/>
<path id="PA" inkscape:connector-curvature="0" class="st1" d="M900,170.1l-6.3-2.7l-1.1-2.4l-5.4-4.2l-29.7,8.9l-29.5,8.1l-5.1-1.3
	l-0.7-2.9l-1.7,1.3l-2.6,1.8l-4.8,4.9l-0.6,0.5l2.7,11.9l0.5,2.1l2.4,10.5l0.5,2l0,0l4.3,18.4l13.8-3.4l1.9-0.5l1.7-0.5l6.9-1.8
	l38-10.6l6.9-2.1l1.7-0.5l0,0l0.8-1.9l1.7-1.4h2.3l0.3-0.9l3.8-4.3l0.4-0.7l0.3-0.2l-3.8-9.9l-1.8-0.3l0.1-6.5l-1.7-2.1l4.1-9l0,0
	L900,170.1L900,170.1z"/>
<path id="ME" inkscape:connector-curvature="0" class="st1" d="M946.8,118.4L946.8,118.4L946.8,118.4L946.8,118.4L946.8,118.4z
	 M954,97.7l-0.8-1.2v0.6C953.2,97.1,954,97.7,954,97.7z M952.6,96.7v-1l-0.1-0.6C952.5,95.1,952.6,96.7,952.6,96.7z M956.1,92.6
	l-0.2-0.1l0.1,0.3L956.1,92.6L956.1,92.6z M965.8,87.7l-0.2-1.5l-0.4,0.7L965.8,87.7z M963.4,88.3l0.1-1.1l-1.2,0.2L963.4,88.3
	L963.4,88.3z M967,85.1h-0.4v0.2L967,85.1z M962.1,86.6l-0.9-0.2l-0.1,0.9L962.1,86.6L962.1,86.6z M967.1,83.6l0.9,0.7l-0.3-0.8
	L967.1,83.6z M964.5,83.7l-0.9,1.7l1.2-0.6L964.5,83.7L964.5,83.7z M960.3,83.7l-0.4,0.6l0.3,0.9L960.3,83.7L960.3,83.7z M966,80.5
	l-0.1-0.8l-0.3,0.5L966,80.5L966,80.5z M965.5,80.9l-0.9-0.8v0.7L965.5,80.9z M960.1,83.2l-0.2-1.1l-0.4,0.9L960.1,83.2z
	 M969.3,79.8l-1.5,2.1l-0.1-1.6L969.3,79.8z M976.4,73.3l-0.7-1l-0.4,0.2C975.3,72.5,976.4,73.3,976.4,73.3z M979,68.9l-0.6-0.3
	l-0.1,0.3H979L979,68.9z M980.3,61.3h-0.9l1,0.3L980.3,61.3L980.3,61.3z M981.7,62.3l-0.3-1.7l-0.8-0.1
	C980.7,60.5,981.7,62.3,981.7,62.3z M980.2,60.7l-0.2-1.8l-0.7,1.3L980.2,60.7L980.2,60.7z M923.9,76l14.1,33l0.2,0.7l6.1,7.5V117
	l1-0.3l0.2-5.5l1.6-1.9l1-5.1l-0.9-0.9l1.7-5l5.6-2.6l3.7-4.5l1.4-7.8l5.9-0.4l-0.8-4l7.4-2.8l0.5-4.4l1.7,0.4l4.9-4l2.1-5.1l-5-5
	l-5.2-1.1l-1.9-4v-2.3l-3.2,1l-3.6-1.3v-4l-9.7-21l-7.1-3.7l-7.9,6.6l-2.1-0.4l-1.8-3.4l-2.5,1l-3.6,17.9l1.3,5.8l1.1,11.8l-2.8,9.1
	l1.9,1.5l-2.3,4.5l-2.5-0.4L923.9,76L923.9,76z"/>
<path id="MI" inkscape:connector-curvature="0" class="st0" d="M720,138.2l-0.5-0.8l-0.1,1L720,138.2z M721.5,136.5l-1.2-1.6
	l-0.2,0.7L721.5,136.5z M722.5,129.5l-1-0.9v0.2L722.5,129.5z M720.1,205.5l12-1.9l3.4-0.7l14.9-2.6l0.3,1.3l1-0.3l6.4-1.4l6.1-1.5
	l6.2-1.6l-0.1-0.3l3.2-6.3l-0.3-5.2l3.6-9l2.8,1.7l1.1-2l-0.3-7.8l-2.6-4.9l-3.9-10.3l-3.4-3.8l-1.7-0.5l-6.3,4.4l0.7,0.9l-3.3,6.2
	l-3.2-0.6l-1-6.5l1.4-0.5l2.8-6.5l0.3-11.5l-4.4-9.7L746,123l-1-1.5l-9-2.6l-4.1,5l0.4,4.4l-3.1,3.9l0.7,6l-3,2.1v-7.6l-2.7,5.7
	l-3.2,5l-2.1,1.7l1.1,5.3l-1.4,5.5l0.8,6.9l-1,3.4l7,13.4l0.9,5.1l-0.9,9.5l-4.7,10.7L720.1,205.5L720.1,205.5z M740.8,118l-2.5,0.2
	l1.6,1.2L740.8,118L740.8,118z M726.1,120.5h-0.8l0.9,0.4L726.1,120.5z M743.1,108.2l-1-1.6l-0.4,0.1L743.1,108.2L743.1,108.2z
	 M655.1,115.3l3.1,1.7l15.9,4.9l7.4,1.9l7.2,0.5l5.2,4.3v6.6l4.7,4.7v-0.1l3.8-11l4.6-3.2l3.5-3.9l0.6,3.5l3.6-5.5l8.6-3.3l0.7-1.4
	l8.7,1.1l3.4,1.7l1.7-4.3l1.6,1l6.8-1.1l-1.7-2.7l-3-1.7l0.6-6.3l-5.9,3.3l-5.4-0.7l-1.7-4.2l0.6-1.4l-7.4,3.5l-4.8,0.3l-8.5,5.2
	l-1,1.9l-5.2-1.3l-3.3,1.5l-6.6-5.7l-14.7-4.5l-0.3-1.7l-9.4,9l-5.3,1.4l-7.6,5.7L655.1,115.3L655.1,115.3z M689.5,93.3l-11.4,5.6
	l3.8,3.7l1.5-3.7l3.9-4.8L689.5,93.3L689.5,93.3z M676.8,80l-7.8,5.3l-0.4,2.6l6.1-4.5L676.8,80z"/>
<path id="AK" inkscape:connector-curvature="0" class="st1" d="M101.3,543l-0.5,0.2l0.4,0.1L101.3,543L101.3,543z M104.9,543.5
	L104.9,543.5L104.9,543.5L104.9,543.5z M103.1,541.9v0.3l0.2-0.1L103.1,541.9L103.1,541.9z M102.3,541.4L102.3,541.4L102.3,541.4
	L102.3,541.4z M104.1,542.4v-0.2V542.4L104.1,542.4L104.1,542.4z M103.9,542.2L103.9,542.2l-0.2-0.1L103.9,542.2z M28.2,478.4
	l-0.1,0.7l0.2,1.9C28.3,481,28.2,478.4,28.2,478.4z M27.7,475.8l0.1,0.9l0.1-0.3C27.9,476.4,27.7,475.8,27.7,475.8z M103.9,541
	l0.1-0.6l-0.4,0.2L103.9,541L103.9,541z M115,545.8L115,545.8l0.1,0.3L115,545.8L115,545.8z M107.8,542.4l-1.1-1v2.3L107.8,542.4z
	 M110.2,544.5l-0.1-0.7l-1.7-0.1L110.2,544.5L110.2,544.5z M116,545.9l-0.1,0.2h0.2L116,545.9L116,545.9z M116.4,546h-0.2l0.4,0.1
	L116.4,546z M117.6,546.4L117.6,546.4h-0.2H117.6L117.6,546.4z M31.9,480.5l0.4,0.1l0.3-0.1C32.6,480.5,31.9,480.5,31.9,480.5z
	 M115.5,545l-0.8-0.1l0.3,0.3L115.5,545L115.5,545z M26.6,473l-1.4-0.6l-0.1,0.3L26.6,473L26.6,473z M117.9,545.2l-0.2-0.1v0.1
	H117.9z M123.8,546.4l-3.8,0.3l-0.9,0.4C119.1,547,123.8,546.4,123.8,546.4z M19.7,457.7h-1.1l0.2,0.3
	C18.9,458,19.7,457.7,19.7,457.7z M135.5,550.8v-0.4h-0.2L135.5,550.8z M140.6,550.9l0.2-0.2l-0.2-0.2V550.9z M144.4,552l0.2-0.1
	L144.4,552L144.4,552L144.4,552z M141.3,550.2l-0.1-0.4H141L141.3,550.2L141.3,550.2z M147.8,551.7L147.8,551.7L147.8,551.7
	L147.8,551.7z M20.3,452.8l-1.5,0.2l1.8,1.7L20.3,452.8L20.3,452.8z M142.6,550.2l0.2-0.6h-0.1L142.6,550.2L142.6,550.2z M159,548.8
	l0.1-0.2l-0.2-0.1L159,548.8L159,548.8z M156.6,547.9l-3.4,3l2.4-0.2l2.8-2.2L156.6,547.9L156.6,547.9z M162.7,549l-0.7-0.2l0.5,0.4
	L162.7,549L162.7,549z M164.1,549.1l-1.1-0.3l-0.2,0.1L164.1,549.1z M160.4,547.7h-1.1l1.8,0.5L160.4,547.7z M164.9,548.7l-0.1-0.2
	l-0.4,0.1L164.9,548.7L164.9,548.7z M161.9,547.5l-0.4-0.2v1.1L161.9,547.5z M174.4,549.9L174.4,549.9l-0.3-0.1L174.4,549.9
	L174.4,549.9z M174.6,549.8L174.6,549.8l-0.2-0.2L174.6,549.8L174.6,549.8z M172.9,549.3l0.2,0.4v-0.1L172.9,549.3L172.9,549.3z
	 M173.8,549.3l-0.9-0.3l1.1,0.8L173.8,549.3z M175.1,548.3L175.1,548.3L175.1,548.3L175.1,548.3z M186.6,549.7l-0.2-0.4h-0.1
	L186.6,549.7L186.6,549.7z M291,543.2l-0.2-0.2L291,543.2L291,543.2L291,543.2z M173.4,546.3L173.4,546.3L173.4,546.3L173.4,546.3z
	 M293.9,541.5l0.3,0.4h0.2L293.9,541.5z M187.8,548.8L187.8,548.8l-0.1,0.4L187.8,548.8L187.8,548.8z M175.7,547l0.2-0.8h-0.1
	L175.7,547L175.7,547z M299.5,539.3l-0.9,0.5l0.8,0.4L299.5,539.3L299.5,539.3z M177.5,546.5l-0.1-0.2L177.5,546.5L177.5,546.5z
	 M170.2,544.4l-2.4,0.5l-2.1,2.8L170.2,544.4L170.2,544.4z M187.6,548.1l-0.6,0.5l0.6-0.1V548.1L187.6,548.1z M299.5,538.8l-0.2-0.4
	l-0.1,0.2L299.5,538.8L299.5,538.8z M178.3,545.6l-0.7-0.1l0.7,0.7V545.6L178.3,545.6z M293.1,540l-0.2,0.2l0.2,0.7V540z
	 M179.8,545.5l-0.3,0.1l0.4,0.3L179.8,545.5L179.8,545.5z M187,547.5h-0.3l-0.2-0.2L187,547.5z M179,545.5l-0.5-0.3l0.2,0.3H179z
	 M185.5,546.5l-0.9,0.3l-0.6,1.6L185.5,546.5L185.5,546.5z M290.9,539.8v0.7l0.4-0.5L290.9,539.8L290.9,539.8z M174.1,543.4l0.8-0.2
	h-0.1L174.1,543.4L174.1,543.4z M173.1,542.9l-0.2-0.2v0.1L173.1,542.9L173.1,542.9z M290.9,539.1l-0.2-0.1l-0.1,0.3L290.9,539.1
	L290.9,539.1z M184.5,544.9l-0.2-0.1l-0.2,0.3L184.5,544.9L184.5,544.9z M290,539.3l0.1-0.5l-0.2-0.1L290,539.3L290,539.3z
	 M289.2,538.8l-0.3,0.4l0.5,0.1L289.2,538.8L289.2,538.8z M188.5,543.5l-0.2-0.2h-0.1L188.5,543.5L188.5,543.5z M288.9,537l0.8,0.3
	l0.3-0.4L288.9,537L288.9,537z M290.1,536.4l-0.3,0.2l0.5,0.3L290.1,536.4z M287.8,536.9l-0.2-0.4l-0.2,0.2L287.8,536.9L287.8,536.9
	z M297.5,533.3l-1.3,3.6l1.3-0.8V533.3z M182.5,540.8L182.5,540.8L182.5,540.8L182.5,540.8z M289,534.7l-0.9,0.9l0.2,1L289,534.7
	L289,534.7z M198.6,542.5v-0.4l-0.1,0.2L198.6,542.5z M287.9,533.7l2.8,4.3l6.3,4l-1.5-3.4l-6-5.1L287.9,533.7L287.9,533.7z
	 M194.8,540.9l-0.1-0.3l-0.2,0.1L194.8,540.9L194.8,540.9z M291.2,532.1l-0.4,1.5l0.7-0.5L291.2,532.1L291.2,532.1z M293.3,532.1
	l-0.1,1l0.9,0.3L293.3,532.1L293.3,532.1z M197.9,539.7l-0.5-0.1l-0.5,0.2L197.9,539.7L197.9,539.7z M207.9,540.4l-0.4,0.7l0.2-0.6
	L207.9,540.4L207.9,540.4z M209.3,540.5l-0.9,0.1l0.5,0.6L209.3,540.5L209.3,540.5z M150.5,528.1l1,0.5l-0.2-0.2L150.5,528.1
	L150.5,528.1z M189,537.7L189,537.7L189,537.7L189,537.7z M189.3,537.6L189.3,537.6L189.3,537.6L189.3,537.6z M289.7,530.1l0.5,1.8
	l1-0.6L289.7,530.1L289.7,530.1z M191.9,536.5L191.9,536.5L191.9,536.5L191.9,536.5z M285.5,530.9l0.5,4.5l1-1L285.5,530.9z
	 M286,529.5l2.2,3.1l-0.3-2L286,529.5z M279.1,530.2l-0.6,1.8l0.8-1.3L279.1,530.2L279.1,530.2z M201.5,535L201.5,535L201.5,535
	L201.5,535z M210.7,535.2l-0.2-0.3L210.7,535.2L210.7,535.2L210.7,535.2z M279.3,528.8l3.9,6.4l-0.6-4.4L279.3,528.8L279.3,528.8z
	 M216.1,532.2l-0.3,0.3l0.5,0.2L216.1,532.2L216.1,532.2z M214.8,532.4l0.1-0.3h-0.4L214.8,532.4L214.8,532.4z M213.9,532.4
	l-2.5,1.7l-3.1,4.1l1.6,1.7l7.2-5.3L213.9,532.4z M275.1,526.1l-0.7-0.4v0.6L275.1,526.1L275.1,526.1z M213.3,531.2l0.1,0.4l0.7,0.4
	L213.3,531.2L213.3,531.2z M277,524.2l-1.9,1l1.8,0.6L277,524.2L277,524.2z M275.7,524.2l-0.2-0.2l-0.1,0.2H275.7L275.7,524.2z
	 M281.6,522.7l-0.8-0.3l-0.2,0.6L281.6,522.7z M277.5,523.3l-0.7-0.1v0.2L277.5,523.3L277.5,523.3z M279.6,522.6l4,5.8l-1.1-5.3
	L279.6,522.6L279.6,522.6z M215.5,528.9l-2.3,1.7l1.1,1.2l3.1-2.3L215.5,528.9L215.5,528.9z M189.1,525.2L189.1,525.2L189.1,525.2
	L189.1,525.2z M188.1,524.7l-0.1-0.5v0.2L188.1,524.7z M217.9,526l-0.2,0.1v0.1L217.9,526L217.9,526z M216.9,525.8L216.9,525.8
	l-0.3,0.3L216.9,525.8L216.9,525.8z M219.2,525l-0.3-0.2v0.1L219.2,525L219.2,525z M220,524.9l-0.3-0.2v0.1L220,524.9L220,524.9z
	 M218.7,524.6h-0.4v0.1L218.7,524.6z M238,522.7l0.1-0.3L238,522.7L238,522.7L238,522.7z M244,519.6l1.2-1.5l-0.4,0.3L244,519.6z
	 M232.1,519.4l0.4-0.3l0.1-0.4L232.1,519.4L232.1,519.4z M232.1,518.3l-0.4,0.3l0.7-0.2L232.1,518.3z M216.2,518.3l-0.1-0.4H216
	L216.2,518.3L216.2,518.3z M231.7,518.2l-0.4,0.4l-0.2,0.4L231.7,518.2z M242.4,517L242.4,517h0.2H242.4L242.4,517z M242.9,517
	l-0.2-0.1v0.1H242.9z M241.7,516.9L241.7,516.9L241.7,516.9L241.7,516.9z M233.8,517.5l0.4-0.4L233.8,517.5L233.8,517.5L233.8,517.5
	z M239.7,516.4L239.7,516.4L239.7,516.4L239.7,516.4z M234.9,516.6l-2.3,3.8l3-3.5L234.9,516.6z M231.9,517.1l-0.3-0.4l-0.1,0.2
	L231.9,517.1L231.9,517.1z M239.3,516.3l-0.2-0.1L239.3,516.3L239.3,516.3L239.3,516.3z M241.8,516.5v-0.7l-0.2,0.3L241.8,516.5z
	 M170.6,509l-4.7-0.2l3.2,3.4L170.6,509z M236.9,515.9l0.2,0.7l0.5-0.8L236.9,515.9L236.9,515.9z M233,515.8l-0.3,2.1l0.5-1.4
	L233,515.8z M148.7,499.7l0.1-0.4l0,0L148.7,499.7z M232,514.4l0.1,0.3l0.2-0.1L232,514.4L232,514.4z M231.5,514.8l-0.2-0.6
	l-0.3,0.2L231.5,514.8z M236.1,513.6v-0.4l-0.3,0.2L236.1,513.6L236.1,513.6z M231.7,513.1v1l0.3-0.7L231.7,513.1z M224.4,511.9
	v-0.3l0,0V511.9z M173.7,499.9l0.2-0.6l-0.1,0.1L173.7,499.9L173.7,499.9z M174,498.9L174,498.9h-0.2H174L174,498.9z M178.3,496.6
	L178.3,496.6L178.3,496.6L178.3,496.6z M178.3,496.2l-0.1-0.2l0,0L178.3,496.2z M180,493.6L180,493.6L180,493.6L180,493.6z
	 M180.6,493.8l-0.4-0.2v0.1L180.6,493.8L180.6,493.8z M180,493.5v-0.2l-0.2,0.2H180z M164.5,488.9l-0.2-0.5l-0.1-0.3L164.5,488.9
	L164.5,488.9z M165.9,487.1L165.9,487.1l0.2,0.1L165.9,487.1L165.9,487.1z M163.3,486.7l-0.8-1l0.6,0.8L163.3,486.7L163.3,486.7z
	 M161.8,485.1h-0.2H161.8L161.8,485.1L161.8,485.1z M161.9,484L161.9,484L161.9,484L161.9,484z M161.8,483.9L161.8,483.9l0.2,0.1
	L161.8,483.9z M187.5,491.6l-1.1,0.1l0.6,0.3L187.5,491.6L187.5,491.6z M160.7,482.2l-0.8,2.9l2.4,0.4l3.2,3.3l1.9-0.9L160.7,482.2z
	 M177.7,483.4v-0.2V483.4L177.7,483.4L177.7,483.4z M172.8,473.1l-0.2-0.1L172.8,473.1L172.8,473.1L172.8,473.1z M175.6,474l0.3-0.1
	h-0.1L175.6,474L175.6,474z M177.6,473.5h0.3l0.9-0.4L177.6,473.5L177.6,473.5z M181.1,472.4l0.2-0.2L181.1,472.4L181.1,472.4
	L181.1,472.4z M181.6,472.3l0.6-0.3l-0.5,0.1L181.6,472.3L181.6,472.3z M183,471.7l-0.5,0.1v0.1L183,471.7L183,471.7z M183.6,471.6
	L183.6,471.6L183.6,471.6L183.6,471.6z M245.3,454.1l-0.4-0.3l-0.7-0.3L245.3,454.1L245.3,454.1z M194.5,452l0.9-1.2l-0.5,0.4
	L194.5,452L194.5,452z M195.6,450.6l0.4-0.6l-0.2,0.2L195.6,450.6L195.6,450.6z M196.2,449.9l0.7-0.6l-0.4,0.2L196.2,449.9
	L196.2,449.9z M226.8,450.1l0.5,0.5h0.3L226.8,450.1z M211.2,443.7l-4,3.3l-2.4-0.7l-5.6,3.2l-1.1-0.7l-6.4,7.2l-6.5,1.5l0.6,3.5
	l2.9,4l5.4,5.2l-0.9,2l4.1,1.7l-2.1,0.4l-2.6-2l1.4,3l-1.7,1.1l-5.5-5l-4.4,0.8l-7.5,2.8l3.4,3.8l-0.5,2.3l2.2,2.7l7.4,2.9l5.3-2.7
	l0.9,2l-1.5,6.1h-4.5l-5.2,2.3l-0.3-1.7l-2.7,1.1l-1.3,2.8l-4.5,3.4v5l1.7,0.8L174,510l5.8,5l3.7-1.6l-0.8,6.2l1.1,1.4l4.5,1
	l1.7,1.8l3.9,0.3l1.8,1.9l4-1.2l-1.8,2.5l-1.5,5.1l-11.8,7.7l-1.6,1.6l-2.2-0.9l-3.6,0.9l-5.1,3.4l8.1-2.3l1.2,1.7l10.4-3.4l0.3,1.4
	l4.1-4.1l8.5-5.9l0.7,0.4l7.5-5.9l-1.9-2.3l2.5-4.2l6.6-7.9l5-1l1.6,1.1l-6.1,1.7l-1.7,6.5l0.2,3.5l2.1-0.2l10.3-6.2l0.8-2.3
	l-0.9-3.6l3.1,0.8l2.2-1.5l6.4,3.9l-0.5,1.1l14.6,1.8l3.4-1.1l1,1.5l12.6,6l2.1-1.3l0.2-7.3l1.7,3.3l8.2,5.9l0.7,2.4l7.1,4l1.8,5.1
	l1.7-4l3.6,7l2.4-4l-1.9-5l-7.5-0.8l-11.5-11l-6.2-4.6l-4.8,4.7h-2.8l-6.5-4.3l-6.4-0.3l-9.1-57.6l-1.6-2.7l-3.7-2.2l-5.5,1.1
	l-4.3-0.9l-5.4-2.1l-5.7,0.4l-1.5-2.7l-4.6-0.7l-0.8-1.7l-2,2.3L211.2,443.7L211.2,443.7z"/>
</svg>
