<svg id="0" version="1.0" viewBox="0 0 867.03851 464.48398" xmlns="http://www.w3.org/2000/svg" xmlns:svg="http://www.w3.org/2000/svg">
  <g id="1" transform="matrix(2.1608773,0,0,2.1608773,-639.41711,-196.63983)">
    <path d="m449.05,273.25,0-38.45" fill="none" id="2" stroke="#000" stroke-linecap="butt" stroke-linejoin="miter" stroke-miterlimit="4" stroke-width="0.80000001px" style="stroke-dasharray:none;"/>
    <path d="m449.9,273.95-0.85,0.5-0.85-0.5,0-39.85,0.85-0.5,0.85,0.5,0,39.85z" fill="#000" fill-rule="evenodd" id="3"/>
    <path d="m456.4,269,0-29.95" fill="none" id="4" stroke="#000" stroke-linecap="butt" stroke-linejoin="miter" stroke-miterlimit="4" stroke-width="0.80000001px" style="stroke-dasharray:none;"/>
    <path d="m455.55,237.85,0,32.35,1.7,0,0-32.35-1.7,0z" fill="#000" fill-rule="evenodd" id="5"/>
    <path d="M483.2,293.7,450.25,275.65" fill="none" id="6" stroke="#000" stroke-linecap="butt" stroke-linejoin="miter" stroke-miterlimit="4" stroke-width="0.80000001px" style="stroke-dasharray:none;"/>
    <path d="m484.4,293.9,0,1.95-35.35-20.4,0-1,0.85-0.5,34.5,19.95z" fill="#000" fill-rule="evenodd" id="7"/>
    <path d="m518.6,275.65-33,18.05" fill="none" id="8" stroke="#000" stroke-linecap="butt" stroke-linejoin="miter" stroke-miterlimit="4" stroke-width="0.80000001px" style="stroke-dasharray:none;"/>
    <path d="m518.95,273.95,0.85,0.5,0,1-35.4,20.4,0-1.95,34.55-19.95z" fill="#000" fill-rule="evenodd" id="9"/>
    <path d="M511.25,271.4,485.6,285.2" fill="none" id="10" stroke="#000" stroke-linecap="butt" stroke-linejoin="miter" stroke-miterlimit="4" stroke-width="0.80000001px" style="stroke-dasharray:none;"/>
    <path d="m512.05,269.45,0.85,1.5-28.05,16.2-0.85-1.5,28.05-16.2z" fill="#000" fill-rule="evenodd" id="11"/>
    <path d="m519.8,234.8,0,38.45" fill="none" id="12" stroke="#000" stroke-linecap="butt" stroke-linejoin="miter" stroke-miterlimit="4" stroke-width="0.80000001px" style="stroke-dasharray:none;"/>
    <path d="m518.95,234.1,1.7-1,0,40.85-0.85,0.5-0.85-0.5,0-39.85z" fill="#000" fill-rule="evenodd" id="13"/>
    <path d="m485.6,214.35,33,18.05" fill="none" id="14" stroke="#000" stroke-linecap="butt" stroke-linejoin="miter" stroke-miterlimit="4" stroke-width="0.80000001px" style="stroke-dasharray:none;"/>
    <path d="m484.4,214.15,0-1,0.85-0.5,35.4,20.45-1.7,1-34.55-19.95z" fill="#000" fill-rule="evenodd" id="15"/>
    <path d="m485.6,222.85,25.65,13.8" fill="none" id="16" stroke="#000" stroke-linecap="butt" stroke-linejoin="miter" stroke-miterlimit="4" stroke-width="0.80000001px" style="stroke-dasharray:none;"/>
    <path d="m484,222.4,0.85-1.5,28.05,16.2-0.85,1.45l-28.05-16.15z" fill="#000" fill-rule="evenodd" id="17"/>
    <path d="M450.25,232.4,483.2,214.35" fill="none" id="18" stroke="#000" stroke-linecap="butt" stroke-linejoin="miter" stroke-miterlimit="4" stroke-width="0.80000001px" style="stroke-dasharray:none;"/>
    <path d="m449.9,234.1-0.85-0.5-0.05-1,34.55-19.95,0.85,0.5,0,1-34.5,19.95z" fill="#000" fill-rule="evenodd" id="19"/>
    <path d="M554,293.7,521,275.65" fill="none" id="20" stroke="#000" stroke-linecap="butt" stroke-linejoin="miter" stroke-miterlimit="4" stroke-width="0.80000001px" style="stroke-dasharray:none;"/>
    <path d="m555.2,293.9,0,1.95-35.4-20.4,0-1,0.85-0.5,34.55,19.95z" fill="#000" fill-rule="evenodd" id="21"/>
    <path d="M589.35,275.65,556.4,293.7" fill="none" id="22" stroke="#000" stroke-linecap="butt" stroke-linejoin="miter" stroke-miterlimit="4" stroke-width="0.80000001px" style="stroke-dasharray:none;"/>
    <path d="m590.55,273.45,0,2-35.35,20.4,0-1.95,35.35-20.45z" fill="#000" fill-rule="evenodd" id="23"/>
    <path d="m624.75,293.7-33-18.05" fill="none" id="24" stroke="#000" stroke-linecap="butt" stroke-linejoin="miter" stroke-miterlimit="4" stroke-width="0.80000001px" style="stroke-dasharray:none;"/>
    <path d="m625.95,293.9,0,1.95-35.4-20.4,0-2,35.4,20.45z" fill="#000" fill-rule="evenodd" id="25"/>
    <path d="m660.15,275.65-33,18.05" fill="none" id="26" stroke="#000" stroke-linecap="butt" stroke-linejoin="miter" stroke-miterlimit="4" stroke-width="0.80000001px" style="stroke-dasharray:none;"/>
    <path d="m661.35,273.45,0,2-35.4,20.4,0-1.95,35.4-20.45z" fill="#000" fill-rule="evenodd" id="27"/>
    <path d="M695.5,293.7,662.55,275.65" fill="none" id="28" stroke="#000" stroke-linecap="butt" stroke-linejoin="miter" stroke-miterlimit="4" stroke-width="0.80000001px" style="stroke-dasharray:none;"/>
    <path d="m697.15,294.15-0.85,1.45-34.95-20.15,0-2,35.8,20.7z" fill="#000" fill-rule="evenodd" id="29"/>
    <text fill="#000000" font-family="Arial" font-size="28.79999924px" font-style="normal" font-weight="normal" id="30" style="text-anchor:start;text-align:start;" x="382.39999" xml:space="preserve" y="305.60001">H</text>
    <text fill="#000000" font-family="Arial" font-size="28.79999924px" font-style="normal" font-weight="normal" id="31" style="text-anchor:start;text-align:start;" x="402.39999" xml:space="preserve" y="305.60001">O</text>
    <path d="m427.35,286.45,20.5-10.8" fill="none" id="32" stroke="#000" stroke-linecap="butt" stroke-linejoin="miter" stroke-miterlimit="4" stroke-width="0.80000001px" style="stroke-dasharray:none;"/>
    <path d="m426.6,288.4-0.85-1.45,22.45-13,0.85,0.5,0,1-22.45,12.95z" fill="#000" fill-rule="evenodd" id="33"/>
    <path d="m375.65,194.35,72.2,38.05" fill="none" id="34" stroke="#000" stroke-linecap="butt" stroke-linejoin="miter" stroke-miterlimit="4" stroke-width="0.80000001px" style="stroke-dasharray:none;"/>
    <path d="m374.45,194.15,0-1,0.85-0.5,73.7,39.95,0.05,1-0.85,0.5-73.75-39.95z" fill="#000" fill-rule="evenodd" id="35"/>
    <text fill="#000000" font-family="Arial" font-size="28.79999924px" font-style="normal" font-weight="normal" id="36" style="text-anchor:start;text-align:start;" x="473.60001" xml:space="preserve" y="183.2">O</text>
    <text fill="#000000" font-family="Arial" font-size="28.79999924px" font-style="normal" font-weight="normal" id="37" style="text-anchor:start;text-align:start;" x="495.20001" xml:space="preserve" y="183.2">H</text>
    <path d="m484.4,189.3,0,22.65" fill="none" id="38" stroke="#000" stroke-linecap="butt" stroke-linejoin="miter" stroke-miterlimit="4" stroke-width="0.80000001px" style="stroke-dasharray:none;"/>
    <path d="m483.55,188.1,1.7,0,0,24.55-0.85,0.5-0.85-0.5,0-24.55z" fill="#000" fill-rule="evenodd" id="39"/>
    <path d="m374.45,153.5,0,38.45" fill="none" id="40" stroke="#000" stroke-linecap="butt" stroke-linejoin="miter" stroke-miterlimit="4" stroke-width="0.80000001px" style="stroke-dasharray:none;"/>
    <path d="m373.6,152.8,1.7-1,0,40.85-0.85,0.5-0.85-0.5,0-39.85z" fill="#000" fill-rule="evenodd" id="41"/>
    <path d="m340.25,133.05,33,18.05" fill="none" id="42" stroke="#000" stroke-linecap="butt" stroke-linejoin="miter" stroke-miterlimit="4" stroke-width="0.80000001px" style="stroke-dasharray:none;"/>
    <path d="m339.05,132.85,0-1,0.85-0.5,35.4,20.45-1.7,1-34.55-19.95z" fill="#000" fill-rule="evenodd" id="43"/>
    <path d="m340.25,141.55,25.65,13.8" fill="none" id="44" stroke="#000" stroke-linecap="butt" stroke-linejoin="miter" stroke-miterlimit="4" stroke-width="0.80000001px" style="stroke-dasharray:none;"/>
    <path d="m338.65,141.1,0.85-1.5,28,16.2-0.85,1.5-28-16.2z" fill="#000" fill-rule="evenodd" id="45"/>
    <path d="m304.85,151.1,33-18.05" fill="none" id="46" stroke="#000" stroke-linecap="butt" stroke-linejoin="miter" stroke-miterlimit="4" stroke-width="0.80000001px" style="stroke-dasharray:none;"/>
    <path d="m304.5,152.8-1.7-1,35.4-20.45,0.85,0.5,0,1-34.55,19.95z" fill="#000" fill-rule="evenodd" id="47"/>
    <path d="m303.65,191.95,0-38.45" fill="none" id="48" stroke="#000" stroke-linecap="butt" stroke-linejoin="miter" stroke-miterlimit="4" stroke-width="0.80000001px" style="stroke-dasharray:none;"/>
    <path d="m304.5,192.65-1.7,1,0-41.85,1.7,1,0,39.85z" fill="#000" fill-rule="evenodd" id="49"/>
    <path d="m337.85,212.4-33-18.05" fill="none" id="50" stroke="#000" stroke-linecap="butt" stroke-linejoin="miter" stroke-miterlimit="4" stroke-width="0.80000001px" style="stroke-dasharray:none;"/>
    <path d="m339.05,212.6,0,1-1.9-0.15-34.35-19.8,1.7-1,34.55,19.95z" fill="#000" fill-rule="evenodd" id="51"/>
    <path d="m373.25,194.35-33,18.05" fill="none" id="52" stroke="#000" stroke-linecap="butt" stroke-linejoin="miter" stroke-miterlimit="4" stroke-width="0.80000001px" style="stroke-dasharray:none;"/>
    <path d="m373.6,192.65,0.85,0.5,0,1-34.55,19.95-0.85-0.5,0-1,34.55-19.95z" fill="#000" fill-rule="evenodd" id="53"/>
    <path d="m339.05,253.25,0-38.45" fill="none" id="54" stroke="#000" stroke-linecap="butt" stroke-linejoin="miter" stroke-miterlimit="4" stroke-width="0.80000001px" style="stroke-dasharray:none;"/>
    <path d="m339.9,253.95-0.85,0.5-0.85-0.5,0-38.65,0.85-1.7,0.85,0.5,0,39.85z" fill="#000" fill-rule="evenodd" id="55"/>
    <path d="m304.9,273.7,32.95-18.05" fill="none" id="56" stroke="#000" stroke-linecap="butt" stroke-linejoin="miter" stroke-miterlimit="4" stroke-width="0.80000001px" style="stroke-dasharray:none;"/>
    <path d="m304.1,275.6-0.85-1.45,34.95-20.2,0.85,0.5,0,1-34.95,20.15z" fill="#000" fill-rule="evenodd" id="57"/>
    <path d="m373.25,273.7-33-18.05" fill="none" id="58" stroke="#000" stroke-linecap="butt" stroke-linejoin="miter" stroke-miterlimit="4" stroke-width="0.80000001px" style="stroke-dasharray:none;"/>
    <path d="m374.85,274.15-0.85,1.45-34.95-20.15,0-1,0.85-0.5,34.95,20.2z" fill="#000" fill-rule="evenodd" id="59"/>
    <path d="m369.55,280.05-29.3-15.9" fill="none" id="60" stroke="#000" stroke-linecap="butt" stroke-linejoin="miter" stroke-miterlimit="4" stroke-width="0.80000001px" style="stroke-dasharray:none;"/>
    <path d="m371.2,280.5-0.85,1.5-31.7-18.3,0.85-1.5,31.7,18.3z" fill="#000" fill-rule="evenodd" id="61"/>
    <path d="m339.05,92.2,0,38.45" fill="none" id="62" stroke="#000" stroke-linecap="butt" stroke-linejoin="miter" stroke-miterlimit="4" stroke-width="0.80000001px" style="stroke-dasharray:none;"/>
    <path d="m338.2,91,1.7,0,0,40.35-0.85,0.5-0.85-0.5,0-40.35z" fill="#000" fill-rule="evenodd" id="63"/>
    <text fill="#000000" font-family="Arial" font-size="28.79999924px" font-style="normal" font-weight="normal" id="64" style="text-anchor:start;text-align:start;" x="400" xml:space="preserve" y="183.2">H</text>
    <path d="m394.85,184.2-1.65-4.65" fill="none" id="65" stroke="#000" stroke-linecap="butt" stroke-linejoin="miter" stroke-miterlimit="4" stroke-width="0.80000001px" style="stroke-dasharray:none;"/>
    <path d="m392.65,177.75,4.25,7.35-1.65,0.55-3.9-6.75,1.3-1.15z" fill="#000" fill-rule="evenodd" id="66"/>
    <path d="M387.75,186.55,387.6,184.5" fill="none" id="67" stroke="#000" stroke-linecap="butt" stroke-linejoin="miter" stroke-miterlimit="4" stroke-width="0.80000001px" style="stroke-dasharray:none;"/>
    <path d="m387.05,182.75,2.75,4.7-1.65,0.55-2.4-4.1,1.3-1.15z" fill="#000" fill-rule="evenodd" id="68"/>
    <path d="m380.65,188.9,1.4,0.6" fill="none" id="69" stroke="#000" stroke-linecap="butt" stroke-linejoin="miter" stroke-miterlimit="4" stroke-width="0.80000001px" style="stroke-dasharray:none;"/>
    <path d="m381.5,187.7,1.2,2.1-1.65,0.55-0.85-1.5,1.3-1.15z" fill="#000" fill-rule="evenodd" id="70"/>
    <text fill="#000000" font-family="Arial" font-size="28.79999924px" font-style="normal" font-weight="normal" id="71" style="text-anchor:start;text-align:start;" x="293.60001" xml:space="preserve" y="244.8">H</text>
    <path d="M318.3,225.05,337.85,214.8" fill="none" id="72" stroke="#000" stroke-linecap="butt" stroke-linejoin="miter" stroke-miterlimit="4" stroke-width="0.80000001px" style="stroke-dasharray:none;"/>
    <path d="m319.25,229.95-4.25-7.35,22.15-9.15,1.9,0.15-0.85,1.7-18.95,14.65z" fill="#000" fill-rule="evenodd" id="73"/>
  </g>
</svg>