<svg xmlns="http://www.w3.org/2000/svg" viewBox="0 0 800 600"><defs><style>.cls-1,.cls-3,.cls-4{fill:#fd6700;}.cls-1,.cls-3{stroke:#fd6700;}.cls-1{stroke-linecap:square;stroke-width:5px;}.cls-2,.cls-3{isolation:isolate;}.cls-3{font-size:38.81px;stroke-miterlimit:10;font-family:ArialMT, Arial;}.cls-4{font-size:120px;font-family:MyriadPro-Regular, Myriad Pro;}</style></defs><title>CBG</title><g id="Layer_1" data-name="Layer 1"><g id="CBG"><g id="g4741"><path id="path4743" class="cls-1" d="M429.17,297.7v57.14"/><path id="path4745" class="cls-1" d="M479.45,384.67,430,356.11"/><path id="path4747" class="cls-1" d="M430,296.28l49.48-28.56"/><path id="path4749" class="cls-1" d="M480.89,267.72l49.48,28.56"/><path id="path4751" class="cls-1" d="M531.31,297.7v57.14"/><path id="path4753" class="cls-1" d="M530.52,356.11,481,384.67"/></g><path id="path4755" class="cls-1" d="M516.08,350.3l-31.75,18.33"/><path id="path4757" class="cls-1" d="M483.17,283.12l31.75,18.33"/><path id="path4759" class="cls-1" d="M441.46,345.22V308.56"/><path id="path4789" class="cls-1" d="M581.74,385.1l-49.47-28.56"/><path id="path4791" class="cls-1" d="M583.34,385.1l49.47-28.56"/><path id="path4900" class="cls-1" d="M634.3,356.5l49.48,28.57"/><g id="text5004" class="cls-2"><text class="cls-3" transform="translate(494.44 227.31)">H</text></g><g id="text5014" class="cls-2"><text class="cls-3" transform="translate(465.29 227.36)">O</text></g><path id="path14600" class="cls-1" d="M480.49,231.39v34.37"/><path id="path14606" class="cls-1" d="M397.31,374.42l29.77-17.19"/><g id="text14612" class="cls-2"><text class="cls-3" transform="matrix(-1, 0, 0, 1, 394.74, 395.09)">O</text></g><path id="path17779" class="cls-1" d="M685.6,384.8l49.48-28.57"/><path id="path17781" class="cls-1" d="M736.64,356.28l49.48,28.56"/><g id="text3488" class="cls-2"><text class="cls-3" transform="translate(338.46 394.83)">H</text></g><path id="path6716" class="cls-1" d="M20.41,295.82l49.48-28.56"/><path id="path6719" class="cls-1" d="M122.46,295.7l49.48-28.56"/><path id="path6721" class="cls-1" d="M173.49,267.14,223,295.7"/><path id="path6723" class="cls-1" d="M224.48,295.7,274,267.14"/><path id="path6749" class="cls-1" d="M326.66,295.59,376.13,267"/><g id="g4000"><path id="path3996" class="cls-1" d="M275.58,267.07l49.48,28.56"/><path id="path3998" class="cls-1" d="M286.61,263.08l36.4,21"/></g><g id="g4004"><path id="path4006" class="cls-1" d="M71.43,267.13l49.48,28.56"/><path id="path4008" class="cls-1" d="M82.46,263.14l36.39,21"/></g><path id="path4010" class="cls-1" d="M70.68,208.18v57.13"/><path id="path4012" class="cls-1" d="M274.78,208.06v57.13"/><path id="path3572" class="cls-1" d="M427.18,295.58,377.7,267"/></g></g><g id="Layer_2" data-name="Layer 2"><text class="cls-4" transform="translate(586.84 101)">CBG</text></g></svg>