<svg xmlns="http://www.w3.org/2000/svg" viewBox="0 0 800 600"><defs><style>.cls-1,.cls-2,.cls-3{fill:#27c352;stroke:#27c352;}.cls-1{stroke-linecap:round;stroke-width:5px;}.cls-2{isolation:isolate;font-size:31px;font-family:Arial-BoldMT, Arial;font-weight:700;}.cls-2,.cls-3{stroke-miterlimit:10;}.cls-3{font-size:120px;font-family:MyriadPro-Regular, Myriad Pro;}</style></defs><title>CBC</title><g id="Layer_1" data-name="Layer 1"><g id="CBC"><line class="cls-1" x1="298.04" y1="335.18" x2="247.04" y2="364.62"/><line class="cls-1" x1="93.96" y1="335.26" x2="93.96" y2="276.35"/><line class="cls-1" x1="298.04" y1="276.35" x2="298.04" y2="335.18"/><line class="cls-1" x1="706" y1="335.18" x2="757" y2="364.62"/><line class="cls-1" x1="603.92" y1="335.18" x2="655.01" y2="364.62"/><line class="cls-1" x1="298.04" y1="394.09" x2="298.04" y2="335.18"/><line class="cls-1" x1="348.94" y1="246.97" x2="298.04" y2="276.35"/><line class="cls-1" x1="349.25" y1="262.21" x2="311.07" y2="284.22"/><line class="cls-1" x1="399.94" y1="276.35" x2="348.94" y2="246.97"/><line class="cls-1" x1="450.94" y1="246.88" x2="501.93" y2="276.35"/><line class="cls-1" x1="450.65" y1="262.14" x2="488.88" y2="284.22"/><line class="cls-1" x1="247.04" y1="364.62" x2="195.96" y2="335.26"/><line class="cls-1" x1="298.04" y1="335.18" x2="332.91" y2="355.3"/><line class="cls-1" x1="364.04" y1="355.84" x2="399.94" y2="335.18"/><line class="cls-1" x1="399.94" y1="276.35" x2="450.94" y2="246.88"/><line class="cls-1" x1="552.93" y1="364.62" x2="603.92" y2="335.18"/><line class="cls-1" x1="93.96" y1="335.26" x2="42.95" y2="364.71"/><line class="cls-1" x1="501.93" y1="276.35" x2="501.93" y2="335.18"/><line class="cls-1" x1="501.93" y1="335.18" x2="552.93" y2="364.62"/><line class="cls-1" x1="399.94" y1="335.18" x2="450.94" y2="364.62"/><line class="cls-1" x1="399.94" y1="276.35" x2="399.94" y2="335.18"/><line class="cls-1" x1="413.28" y1="283.69" x2="413.28" y2="327.81"/><line class="cls-1" x1="195.96" y1="335.26" x2="144.96" y2="364.71"/><line class="cls-1" x1="655.01" y1="364.62" x2="706" y2="335.18"/><line class="cls-1" x1="501.93" y1="335.18" x2="450.94" y2="364.62"/><line class="cls-1" x1="488.88" y1="327.3" x2="450.65" y2="349.39"/><line class="cls-1" x1="450.94" y1="246.88" x2="450.94" y2="202.98"/><line class="cls-1" x1="144.96" y1="364.71" x2="93.96" y2="335.26"/><line class="cls-1" x1="145.25" y1="349.48" x2="107" y2="327.39"/><text class="cls-2" transform="translate(335.8 373.43)">O</text><text class="cls-2" transform="translate(438.1 196.89)">OH</text></g></g><g id="Layer_2" data-name="Layer 2"><text class="cls-3" transform="translate(594.76 101)">CBC</text></g></svg>