<svg xmlns="http://www.w3.org/2000/svg" viewBox="0 0 800 600"><defs><style>.cls-1,.cls-3,.cls-4,.cls-5,.cls-6{fill:#a895cc;}.cls-1,.cls-3,.cls-4,.cls-5{stroke:#a895cc;}.cls-1,.cls-4{stroke-linecap:square;}.cls-1{stroke-width:5px;}.cls-2,.cls-3{isolation:isolate;}.cls-3{font-size:62.71px;font-family:ArialMT, Arial;}.cls-3,.cls-5{stroke-miterlimit:10;}.cls-4{stroke-width:6.98px;}.cls-6{font-size:120px;font-family:MyriadPro-Regular, Myriad Pro;}</style></defs><title>CBDV</title><g id="Layer_1" data-name="Layer 1"><g id="layer1"><g id="g4741"><path id="path4743" class="cls-1" d="M343.47,331.79V424.1"/><path id="path4745" class="cls-1" d="M424.7,472.31l-79.94-46.16"/><path id="path4747" class="cls-1" d="M344.76,329.49l79.94-46.16"/><path id="path4749" class="cls-1" d="M427,283.33l80,46.16"/><path id="path4751" class="cls-1" d="M508.51,331.79V424.1"/><path id="path4753" class="cls-1" d="M507.22,426.15l-79.94,46.16"/></g><path id="path4755" class="cls-1" d="M483.9,416.77l-51.3,29.62"/><path id="path4757" class="cls-1" d="M430.71,308.23,482,337.85"/><path id="path4759" class="cls-1" d="M363.32,408.56V349.32"/><path id="path4789" class="cls-1" d="M590,473l-79.94-46.16"/><path id="path4791" class="cls-1" d="M592.56,473l80-46.16"/><path id="path4900" class="cls-1" d="M674.67,427.53l80,46.16"/><g id="text5004" class="cls-2"><text class="cls-3" transform="translate(448.93 218.04)">H</text></g><g id="text5014" class="cls-2"><text class="cls-3" transform="translate(401.83 218.12)">O</text></g><path id="path14600" class="cls-1" d="M426.39,224.64v55.54"/><path id="path14606" class="cls-1" d="M292,455.74,340.09,428"/><g id="text14608" class="cls-2"><text class="cls-3" transform="matrix(-1, 0, 0, 1, 242.12, 498.39)">H</text></g><g id="text14612" class="cls-2"><text class="cls-3" transform="matrix(-1, 0, 0, 1, 289.22, 498.47)">O</text></g><path id="path14616" class="cls-1" d="M340.89,328l-79.95-46.16"/><g id="g14618"><path id="path14620" class="cls-1" d="M179.67,328l79.94-46.16"/><path id="path14622" class="cls-1" d="M260.75,187.39V279.7"/><path id="path14624" class="cls-1" d="M177,328,97.09,281.88"/><path id="path14626" class="cls-1" d="M95.93,279.86V187.55"/><path id="path14628" class="cls-1" d="M97.15,185.08l79.95-46.16"/><path id="path14630" class="cls-1" d="M179.52,139l79.94,46.15"/></g><path id="path14632" class="cls-1" d="M131.16,409.9,177.32,330"/><path id="path14634" class="cls-1" d="M182.13,164.6l51.3,29.62"/><g id="g14636"><path id="path14638" class="cls-4" d="M273.18,267.42l6.39,7.23"/><path id="path14640" class="cls-4" d="M282.23,256.39l9.18,10.29"/><path id="path14642" class="cls-4" d="M291.74,245.43l11.48,12.82"/><path id="path14644" class="cls-4" d="M301.22,233.18,316.32,250"/></g><g id="text14646" class="cls-2"><text class="cls-3" transform="translate(312.9 240.14)">H</text></g><path id="path14650" class="cls-1" d="M177.91,136.31V44"/><path id="path14652" class="cls-5" d="M179.4,330.26,123,337.32l.07-14.21Z"/><g id="text14654" class="cls-2"><text class="cls-3" transform="translate(75.4 362.56)">H</text></g><g id="g14662"><path id="path14664" class="cls-1" d="M126,415.27l27.77,48.1"/><path id="path14666" class="cls-1" d="M137,408.92,164.77,457"/></g><path id="path14668" class="cls-1" d="M129.1,410.88H73.56"/></g></g><g id="Layer_2" data-name="Layer 2"><text class="cls-6" transform="translate(517.48 101)">CBDV</text></g></svg>