<svg xmlns="http://www.w3.org/2000/svg" viewBox="0 0 800 600"><defs><style>.cls-1,.cls-2{fill:#00b0d3;}.cls-1{stroke:#00b0d3;stroke-miterlimit:10;}.cls-2{font-size:120px;font-family:MyriadPro-Regular, Myriad Pro;}</style></defs><title>CBL</title><g id="Layer_1" data-name="Layer 1"><g id="CBL"><path class="cls-1" d="M203.26,391.41q0-7.67,4.11-12A14,14,0,0,1,218,375.06a14.74,14.74,0,0,1,7.69,2,13.37,13.37,0,0,1,5.22,5.69,18.4,18.4,0,0,1,1.8,8.26,18.18,18.18,0,0,1-1.9,8.39,12.94,12.94,0,0,1-5.35,5.6,15.29,15.29,0,0,1-7.48,1.9,14.58,14.58,0,0,1-7.78-2.1A13.53,13.53,0,0,1,205,399.1,17.33,17.33,0,0,1,203.26,391.41Zm4.2.06c0,3.72,1,6.64,3,8.78a10.46,10.46,0,0,0,15.09,0q3-3.24,3-9.19a15.73,15.73,0,0,0-1.27-6.56,9.8,9.8,0,0,0-3.72-4.35,10.07,10.07,0,0,0-5.49-1.55,10.39,10.39,0,0,0-7.45,3Q207.46,384.52,207.46,391.47Z"/><polygon class="cls-1" points="157.86 353.09 156.34 353.99 154.82 353.99 154.82 281.9 157.86 283.7 157.86 353.09"/><polygon class="cls-1" points="202.42 378.82 200.9 381.51 157.78 356.5 156.34 353.99 157.86 353.09 202.42 378.82"/><polygon class="cls-1" points="278 353.09 279.52 353.99 279.52 355.69 234.88 381.51 233.35 378.91 278 353.09"/><polygon class="cls-1" points="278 283.7 279.52 282.8 281.05 283.7 281.05 353.09 279.52 353.99 278 353.09 278 283.7"/><rect class="cls-1" x="288.76" y="288.99" width="3.05" height="58.81"/><polygon class="cls-1" points="217.93 249 217.93 245.42 279.52 281.01 279.52 282.8 278 283.7 217.93 249"/><polygon class="cls-1" points="157.86 283.7 154.82 281.9 217.93 245.42 217.93 249 157.86 283.7"/><polygon class="cls-1" points="341.2 387.79 341.2 391.28 279.52 355.69 279.52 353.99 281.05 353.09 341.2 387.79"/><polygon class="cls-1" points="401.27 353.09 402.8 353.99 402.8 355.69 341.2 391.28 341.2 387.79 401.27 353.09"/><polygon class="cls-1" points="391.41 346.46 392.93 349.14 341.92 378.55 340.4 375.86 391.41 346.46"/><polygon class="cls-1" points="401.27 283.7 404.32 281.9 404.32 353.09 402.8 353.99 401.27 353.09 401.27 283.7"/><polygon class="cls-1" points="341.2 249 341.2 247.21 342.73 246.31 404.32 281.9 401.27 283.7 341.2 249"/><polygon class="cls-1" points="340.4 260.84 341.92 258.24 392.93 287.64 391.41 290.25 340.4 260.84"/><polygon class="cls-1" points="281.05 283.7 279.52 282.8 279.52 281.01 339.68 246.31 341.2 247.21 341.2 249 281.05 283.7"/><polygon class="cls-1" points="464.48 387.79 464.48 391.28 402.8 355.69 402.8 353.99 404.32 353.09 464.48 387.79"/><polygon class="cls-1" points="526.07 352.19 526.07 355.69 464.48 391.28 464.48 387.79 526.07 352.19"/><polygon class="cls-1" points="587.66 387.79 587.66 391.28 526.07 355.69 526.07 352.19 587.66 387.79"/><polygon class="cls-1" points="649.34 352.19 649.34 355.69 587.66 391.28 587.66 387.79 649.34 352.19"/><path class="cls-1" d="M720.82,395.61l4.08,1a13.77,13.77,0,0,1-4.62,7.66,12.69,12.69,0,0,1-8.14,2.64,14.65,14.65,0,0,1-8.1-2,12.69,12.69,0,0,1-4.75-5.87,21.05,21.05,0,0,1-1.62-8.26,18.17,18.17,0,0,1,1.83-8.39,12.61,12.61,0,0,1,5.24-5.45,15.27,15.27,0,0,1,7.47-1.86,12.61,12.61,0,0,1,7.77,2.36,12.23,12.23,0,0,1,4.39,6.62l-4,.94a9.52,9.52,0,0,0-3.11-4.89,8.25,8.25,0,0,0-5.13-1.54,10,10,0,0,0-5.93,1.7,9,9,0,0,0-3.36,4.58,18.48,18.48,0,0,0-1,5.91,18.85,18.85,0,0,0,1.14,6.86,8.51,8.51,0,0,0,3.56,4.38,10,10,0,0,0,5.24,1.45,8.82,8.82,0,0,0,5.8-2A10.12,10.12,0,0,0,720.82,395.61Z"/><path class="cls-1" d="M730,406.41v-30.8h4.08v12.65h16V375.61h4.08v30.8h-4.08V391.89h-16v14.52Z"/><path class="cls-1" d="M757.07,408.4l2.84-.38a6.21,6.21,0,0,0,1.66,3.47,4.11,4.11,0,0,0,2.86,1.07,4.59,4.59,0,0,0,3.38-1.39,4.67,4.67,0,0,0,1.38-3.43,4.36,4.36,0,0,0-1.27-3.23,4.46,4.46,0,0,0-3.25-1.27,8.16,8.16,0,0,0-2,.32l.31-2.49.46,0a5.81,5.81,0,0,0,3.26-.94,3.24,3.24,0,0,0,1.45-2.92,3.44,3.44,0,0,0-1-2.58,3.79,3.79,0,0,0-2.73-1,3.9,3.9,0,0,0-2.76,1,5.29,5.29,0,0,0-1.42,3.12l-2.83-.5a7.24,7.24,0,0,1,2.36-4.42,6.82,6.82,0,0,1,4.59-1.57,7.55,7.55,0,0,1,3.48.81,5.82,5.82,0,0,1,2.43,2.22,5.67,5.67,0,0,1,.85,3,4.86,4.86,0,0,1-.81,2.73,5.51,5.51,0,0,1-2.38,2,5.36,5.36,0,0,1,3.19,2,6,6,0,0,1,1.13,3.72,6.81,6.81,0,0,1-2.2,5.13,7.73,7.73,0,0,1-5.58,2.11,7.29,7.29,0,0,1-5-1.81A7,7,0,0,1,757.07,408.4Z"/><polygon class="cls-1" points="696.41 379.36 694.89 382.05 649.34 355.69 649.34 352.19 696.41 379.36"/><polygon class="cls-1" points="93.76 269.71 98.07 256.63 100.84 257.88 96.81 270.34 93.76 269.71"/><polygon class="cls-1" points="102.46 271.6 106.13 260.12 108.91 261.38 105.42 272.31 102.46 271.6"/><polygon class="cls-1" points="111.06 273.57 114.29 263.71 117.07 264.87 114.02 274.2 111.06 273.57"/><polygon class="cls-1" points="119.67 275.45 122.36 267.2 125.14 268.46 122.72 276.08 119.67 275.45"/><polygon class="cls-1" points="128.37 277.33 130.52 270.7 133.3 271.96 131.33 278.05 128.37 277.33"/><polygon class="cls-1" points="136.97 279.31 138.59 274.29 141.46 275.45 139.93 279.94 136.97 279.31"/><polygon class="cls-1" points="145.58 281.19 146.75 277.78 149.53 278.95 148.63 281.9 145.58 281.19"/><polygon class="cls-1" points="48.67 318.4 44.9 318.4 87.49 259.76 89.73 261.82 48.67 318.4"/><polygon class="cls-1" points="89.91 375.06 87.4 376.85 44.9 318.4 48.67 318.4 89.91 375.06"/><polygon class="cls-1" points="148.63 354.88 149.53 357.75 146.75 359.01 145.58 355.51 148.63 354.88"/><polygon class="cls-1" points="139.93 356.77 141.46 361.25 138.59 362.51 136.97 357.49 139.93 356.77"/><polygon class="cls-1" points="131.33 358.74 133.3 364.83 130.52 366 128.37 359.37 131.33 358.74"/><polygon class="cls-1" points="122.72 360.62 125.14 368.33 122.36 369.59 119.67 361.25 122.72 360.62"/><polygon class="cls-1" points="114.02 362.51 117.07 371.83 114.29 373.08 111.06 363.22 114.02 362.51"/><polygon class="cls-1" points="105.42 364.48 108.91 375.33 106.13 376.58 102.46 365.11 105.42 364.48"/><polygon class="cls-1" points="96.81 366.36 100.84 378.91 98.07 380.08 93.76 367.08 96.81 366.36"/><polygon class="cls-1" points="146.57 211.98 148.9 212.07 150.24 212.96 89.73 261.82 87.49 259.76 146.57 211.98"/><polygon class="cls-1" points="211.83 242.37 210.49 245.15 207.62 243.98 209.24 240.76 211.83 242.37"/><polygon class="cls-1" points="204.66 237.89 202.6 241.92 199.73 240.76 202.06 236.27 204.66 237.89"/><polygon class="cls-1" points="197.4 233.41 194.71 238.78 191.93 237.62 194.8 231.79 197.4 233.41"/><polygon class="cls-1" points="190.23 228.92 186.82 235.56 184.04 234.39 187.63 227.31 190.23 228.92"/><polygon class="cls-1" points="183.06 224.44 179.02 232.33 176.15 231.25 180.46 222.83 183.06 224.44"/><polygon class="cls-1" points="175.79 220.05 171.13 229.19 168.26 228.03 173.19 218.43 175.79 220.05"/><polygon class="cls-1" points="168.62 215.56 163.24 225.96 160.46 224.89 166.02 213.95 168.62 215.56"/><polygon class="cls-1" points="161.36 211.08 155.44 222.83 152.57 221.66 158.76 209.47 161.36 211.08"/><path class="cls-1" d="M87.83,441.57v-30.8h4.08v12.65h16V410.77H112v30.8h-4.08V427.05h-16v14.52Z"/><path class="cls-1" d="M115.6,443.55l2.83-.38a6.24,6.24,0,0,0,1.67,3.48,4.08,4.08,0,0,0,2.86,1.06,4.57,4.57,0,0,0,3.38-1.39,4.65,4.65,0,0,0,1.38-3.43,4.35,4.35,0,0,0-4.53-4.49,8.15,8.15,0,0,0-2,.31l.32-2.49.46,0a5.86,5.86,0,0,0,3.26-.94,3.25,3.25,0,0,0,1.45-2.92,3.42,3.42,0,0,0-1.06-2.58,3.75,3.75,0,0,0-2.73-1,3.81,3.81,0,0,0-2.75,1,5.18,5.18,0,0,0-1.42,3.12l-2.84-.51a7.37,7.37,0,0,1,2.36-4.42,6.87,6.87,0,0,1,4.59-1.57,7.44,7.44,0,0,1,3.48.82,5.83,5.83,0,0,1,2.44,2.21,5.7,5.7,0,0,1,.84,3,4.9,4.9,0,0,1-.8,2.72,5.5,5.5,0,0,1-2.38,2,5.34,5.34,0,0,1,3.18,2,6,6,0,0,1,1.14,3.73,6.83,6.83,0,0,1-2.21,5.13,7.77,7.77,0,0,1-5.58,2.1,7.24,7.24,0,0,1-5-1.81A7,7,0,0,1,115.6,443.55Z"/><path class="cls-1" d="M157.89,430.77l4.08,1a13.73,13.73,0,0,1-4.62,7.66,12.69,12.69,0,0,1-8.14,2.64,14.65,14.65,0,0,1-8.1-2,12.69,12.69,0,0,1-4.75-5.87,21.06,21.06,0,0,1-1.63-8.26,18.2,18.2,0,0,1,1.84-8.39,12.56,12.56,0,0,1,5.23-5.44,15.33,15.33,0,0,1,7.47-1.86,12.62,12.62,0,0,1,7.78,2.35,12.23,12.23,0,0,1,4.39,6.62l-4,.94a9.52,9.52,0,0,0-3.11-4.89,8.31,8.31,0,0,0-5.13-1.53,9.93,9.93,0,0,0-5.94,1.7A9,9,0,0,0,139.9,420a18.48,18.48,0,0,0-1,5.91,18.85,18.85,0,0,0,1.14,6.86,8.51,8.51,0,0,0,3.56,4.38,10,10,0,0,0,5.24,1.45,8.72,8.72,0,0,0,5.79-2A10.08,10.08,0,0,0,157.89,430.77Z"/><polygon class="cls-1" points="155.71 407.33 142.09 405.36 154.82 353.72 156.34 353.99 157.78 356.5 155.71 407.33"/><path class="cls-1" d="M37.53,178.71V147.9h4.08v12.65h16V147.9h4.07v30.81H57.62V164.19h-16v14.52Z"/><path class="cls-1" d="M65.29,180.66l2.84-.37a6.24,6.24,0,0,0,1.66,3.47,4.1,4.1,0,0,0,2.86,1.06A4.6,4.6,0,0,0,76,183.44,4.69,4.69,0,0,0,77.41,180a4.35,4.35,0,0,0-1.28-3.22,4.42,4.42,0,0,0-3.24-1.27,8.23,8.23,0,0,0-2,.32l.32-2.49.46,0a5.84,5.84,0,0,0,3.26-1,3.22,3.22,0,0,0,1.45-2.91,3.44,3.44,0,0,0-1.06-2.59,3.74,3.74,0,0,0-2.72-1,3.86,3.86,0,0,0-2.76,1,5.18,5.18,0,0,0-1.42,3.12l-2.84-.5a7.27,7.27,0,0,1,2.37-4.42,6.78,6.78,0,0,1,4.58-1.57,7.6,7.6,0,0,1,3.49.81,5.87,5.87,0,0,1,2.43,2.21,5.72,5.72,0,0,1,.84,3,4.85,4.85,0,0,1-.8,2.73,5.48,5.48,0,0,1-2.38,1.95,5.32,5.32,0,0,1,3.18,2,5.93,5.93,0,0,1,1.14,3.72,6.82,6.82,0,0,1-2.21,5.13,7.77,7.77,0,0,1-5.58,2.11,7.27,7.27,0,0,1-5-1.82A7,7,0,0,1,65.29,180.66Z"/><path class="cls-1" d="M107.59,167.91l4.07,1a13.73,13.73,0,0,1-4.61,7.66,12.74,12.74,0,0,1-8.14,2.63,14.56,14.56,0,0,1-8.1-2,12.63,12.63,0,0,1-4.75-5.87,20.83,20.83,0,0,1-1.63-8.25,18.12,18.12,0,0,1,1.84-8.4,12.56,12.56,0,0,1,5.23-5.44A15.27,15.27,0,0,1,99,147.38a12.66,12.66,0,0,1,7.78,2.35,12.27,12.27,0,0,1,4.39,6.62l-4,1a9.55,9.55,0,0,0-3.1-4.9,8.31,8.31,0,0,0-5.13-1.53,9.93,9.93,0,0,0-5.94,1.7,9,9,0,0,0-3.35,4.57,18.5,18.5,0,0,0-1,5.92,18.88,18.88,0,0,0,1.15,6.86,8.54,8.54,0,0,0,3.56,4.38,10.06,10.06,0,0,0,5.23,1.45,8.74,8.74,0,0,0,5.8-2A10.14,10.14,0,0,0,107.59,167.91Z"/><polygon class="cls-1" points="112.41 177.73 114.56 175.58 148.09 209.11 148.9 212.07 146.57 211.98 112.41 177.73"/><path class="cls-1" d="M177.16,149.53l4.08,1a13.7,13.7,0,0,1-4.61,7.66,12.76,12.76,0,0,1-8.14,2.63,14.65,14.65,0,0,1-8.1-2,12.6,12.6,0,0,1-4.75-5.88A20.83,20.83,0,0,1,154,144.7a18.12,18.12,0,0,1,1.84-8.4,12.56,12.56,0,0,1,5.23-5.44,15.27,15.27,0,0,1,7.47-1.86,12.67,12.67,0,0,1,7.77,2.35,12.23,12.23,0,0,1,4.4,6.62l-4,.95a9.49,9.49,0,0,0-3.11-4.9,8.26,8.26,0,0,0-5.12-1.53,10,10,0,0,0-5.94,1.7,9,9,0,0,0-3.35,4.57,18.28,18.28,0,0,0-1,5.92,18.67,18.67,0,0,0,1.15,6.86,8.54,8.54,0,0,0,3.56,4.38,10,10,0,0,0,5.23,1.45,8.76,8.76,0,0,0,5.8-2A10.07,10.07,0,0,0,177.16,149.53Z"/><path class="cls-1" d="M186.39,160.33v-30.8h4.08v12.65h16V129.53h4.07v30.8h-4.07V145.81h-16v14.52Z"/><path class="cls-1" d="M213.42,162.3l2.83-.38a6.24,6.24,0,0,0,1.67,3.48,4.08,4.08,0,0,0,2.86,1.06,4.57,4.57,0,0,0,3.38-1.39,4.67,4.67,0,0,0,1.38-3.43,4.33,4.33,0,0,0-1.28-3.22,4.39,4.39,0,0,0-3.25-1.27,8.15,8.15,0,0,0-2,.31l.32-2.49.45,0a5.87,5.87,0,0,0,3.27-.94,3.25,3.25,0,0,0,1.45-2.92,3.42,3.42,0,0,0-1.06-2.58,3.76,3.76,0,0,0-2.73-1,3.86,3.86,0,0,0-2.75,1,5.23,5.23,0,0,0-1.42,3.12l-2.84-.5a7.37,7.37,0,0,1,2.36-4.42,6.87,6.87,0,0,1,4.59-1.57,7.55,7.55,0,0,1,3.48.81,6,6,0,0,1,2.44,2.22,5.7,5.7,0,0,1,.84,3,4.9,4.9,0,0,1-.8,2.72,5.5,5.5,0,0,1-2.38,2,5.34,5.34,0,0,1,3.18,2,6,6,0,0,1,1.14,3.73,6.82,6.82,0,0,1-2.21,5.13,7.77,7.77,0,0,1-5.58,2.1,7.24,7.24,0,0,1-5-1.81A7,7,0,0,1,213.42,162.3Z"/><polygon class="cls-1" points="160.28 163.56 163.24 164.28 150.24 212.96 148.9 212.07 148.09 209.11 160.28 163.56"/><path class="cls-1" d="M326.42,178.05q0-7.67,4.12-12a14,14,0,0,1,10.63-4.34,14.74,14.74,0,0,1,7.69,2,13.34,13.34,0,0,1,5.22,5.68,18.47,18.47,0,0,1,1.8,8.27,18.18,18.18,0,0,1-1.89,8.39,13,13,0,0,1-5.36,5.6,15.4,15.4,0,0,1-7.48,1.9,14.61,14.61,0,0,1-7.78-2.1,13.59,13.59,0,0,1-5.19-5.74A17.33,17.33,0,0,1,326.42,178.05Zm4.2.06c0,3.72,1,6.64,3,8.78a10.46,10.46,0,0,0,15.09,0q3-3.24,3-9.19a15.73,15.73,0,0,0-1.27-6.56,9.8,9.8,0,0,0-3.72-4.35,10.07,10.07,0,0,0-5.49-1.55,10.39,10.39,0,0,0-7.45,3Q330.62,171.16,330.62,178.11Z"/><path class="cls-1" d="M361.26,193.05v-30.8h4.07V174.9h16V162.25h4.08v30.8h-4.08V178.53h-16v14.52Z"/><polygon class="cls-1" points="339.68 197.54 342.73 197.54 342.73 246.31 341.2 247.21 339.68 246.31 339.68 197.54"/></g></g><g id="Layer_2" data-name="Layer 2"><text class="cls-2" transform="translate(607.72 101)">CBL</text></g></svg>