<svg xmlns="http://www.w3.org/2000/svg" viewBox="0 0 800 600"><defs><style>.cls-1{font-size:120px;font-family:MyriadPro-Regular, Myriad Pro;}.cls-1,.cls-2,.cls-4{fill:#f7c225;}.cls-2,.cls-4{stroke:#f7c225;}.cls-2{stroke-linecap:square;stroke-width:5px;}.cls-3,.cls-4{isolation:isolate;}.cls-4{font-size:55.24px;stroke-miterlimit:10;font-family:ArialMT, Arial;}</style></defs><title>CBN</title><g id="Layer_2" data-name="Layer 2"><text class="cls-1" transform="translate(585.4 101)">CBN</text><g id="layer1"><g id="g4741"><path id="path4743" class="cls-2" d="M263.22,343.53v81.32"/><path id="path4745" class="cls-2" d="M334.79,467.32l-70.43-40.66"/><path id="path4747" class="cls-2" d="M264.36,341.5l70.43-40.66"/><path id="path4749" class="cls-2" d="M336.84,300.84l70.42,40.66"/><path id="path4751" class="cls-2" d="M408.61,343.53v81.32"/><path id="path4753" class="cls-2" d="M407.48,426.66l-70.43,40.66"/></g><path id="path4755" class="cls-2" d="M386.93,418.39l-45.19,26.1"/><path id="path4757" class="cls-2" d="M340.08,322.77l45.19,26.1"/><path id="path4759" class="cls-2" d="M280.71,411.16V359"/><path id="path4789" class="cls-2" d="M480.4,467.93,410,427.27"/><path id="path4791" class="cls-2" d="M482.66,467.93l70.43-40.66"/><path id="path4900" class="cls-2" d="M555.21,427.23l70.43,40.66"/><g id="text5004" class="cls-3"><text class="cls-4" transform="translate(356.13 243.32)">H</text></g><g id="text5014" class="cls-3"><text class="cls-4" transform="translate(314.64 243.39)">O</text></g><path id="path14600" class="cls-2" d="M336.27,249.13v48.93"/><path id="path14606" class="cls-2" d="M217.87,452.72l42.37-24.46"/><g id="text14612" class="cls-3"><text class="cls-4" transform="matrix(-1, 0, 0, 1, 208.74, 482.16)">O</text></g><path id="path14616" class="cls-2" d="M261,340.19l-70.43-40.66"/><path id="path14632" class="cls-2" d="M114.42,423.25V341.93"/><path id="path14650" class="cls-2" d="M117.37,171.32V90"/><g id="g17751"><path id="path17753" class="cls-2" d="M42.13,217.93v81.32"/><path id="path17755" class="cls-2" d="M113.69,341.72,43.26,301.06"/><path id="path17757" class="cls-2" d="M43.26,215.9l70.43-40.66"/><path id="path17759" class="cls-2" d="M115.74,175.24l70.43,40.66"/><path id="path17761" class="cls-2" d="M187.52,217.93v81.32"/><path id="path17763" class="cls-2" d="M186.39,301.06,116,341.72"/></g><path id="path17765" class="cls-2" d="M165.84,292.79l-45.19,26.09"/><path id="path17767" class="cls-2" d="M119,197.17l45.19,26.09"/><path id="path17769" class="cls-2" d="M59.62,285.56V233.37"/><path id="path17773" class="cls-2" d="M115.7,425.22l42.38,24.46"/><path id="path17775" class="cls-2" d="M112.24,427,71.57,497.42"/><path id="path17777" class="cls-2" d="M111.89,423.88H30.56"/><path id="path17779" class="cls-2" d="M628.23,467.5l70.43-40.66"/><path id="path17781" class="cls-2" d="M700.89,426.9l70.42,40.67"/></g></g></svg>